<svg width="37" height="29" viewBox="0 0 37 29" fill="none" xmlns="http://www.w3.org/2000/svg">
<path d="M30 5H2C1.46957 5 0.960859 5.21071 0.585786 5.58579C0.210714 5.96086 0 6.46957 0 7V27C0 27.5304 0.210714 28.0391 0.585786 28.4142C0.960859 28.7893 1.46957 29 2 29H30C30.5304 29 31.0391 28.7893 31.4142 28.4142C31.7893 28.0391 32 27.5304 32 27V7C32 6.46957 31.7893 5.96086 31.4142 5.58579C31.0391 5.21071 30.5304 5 30 5ZM28.46 27H3.66L10.66 19.76L9.22 18.37L2 25.84V8.52L14.43 20.89C14.8047 21.2625 15.3116 21.4716 15.84 21.4716C16.3684 21.4716 16.8753 21.2625 17.25 20.89L30 8.21V25.71L22.64 18.35L21.23 19.76L28.46 27ZM3.31 7H28.38L15.84 19.47L3.31 7Z" fill="#EBB835"/>
<path d="M34.6569 13.6569C36.1571 12.1566 37 10.1217 37 8C37 5.87827 36.1571 3.84344 34.6569 2.34315C33.1566 0.842855 31.1217 0 29 0C26.8783 0 24.8434 0.842855 23.3431 2.34315C21.8429 3.84344 21 5.87827 21 8C21 10.1217 21.8429 12.1566 23.3431 13.6569C24.8434 15.1571 26.8783 16 29 16C31.1217 16 33.1566 15.1571 34.6569 13.6569Z" fill="white"/>
<path fill-rule="evenodd" clip-rule="evenodd" d="M37 8C37 10.1217 36.1571 12.1566 34.6569 13.6569C33.1566 15.1571 31.1217 16 29 16C26.8783 16 24.8434 15.1571 23.3431 13.6569C21.8429 12.1566 21 10.1217 21 8C21 5.87827 21.8429 3.84344 23.3431 2.34315C24.8434 0.842855 26.8783 0 29 0C31.1217 0 33.1566 0.842855 34.6569 2.34315C36.1571 3.84344 37 5.87827 37 8ZM33.03 4.97C32.9586 4.89882 32.8735 4.84277 32.7799 4.80522C32.6863 4.76766 32.5861 4.74936 32.4853 4.75141C32.3845 4.75347 32.2851 4.77583 32.1932 4.81717C32.1012 4.85851 32.0185 4.91797 31.95 4.992L28.477 9.417L26.384 7.323C26.2418 7.19052 26.0538 7.1184 25.8595 7.12183C25.6652 7.12525 25.4798 7.20397 25.3424 7.34138C25.205 7.47879 25.1263 7.66418 25.1228 7.85848C25.1194 8.05278 25.1915 8.24083 25.324 8.383L27.97 11.03C28.0413 11.1012 28.1262 11.1572 28.2196 11.1949C28.313 11.2325 28.413 11.2509 28.5137 11.2491C28.6144 11.2472 28.7137 11.2251 28.8057 11.184C28.8977 11.1429 28.9804 11.0837 29.049 11.01L33.041 6.02C33.1771 5.8785 33.2523 5.68928 33.2504 5.49296C33.2485 5.29664 33.1698 5.10888 33.031 4.97H33.03Z" fill="#FF4B4B"/>
</svg>
