<svg width="16" height="17" viewBox="0 0 16 17" fill="none" xmlns="http://www.w3.org/2000/svg">
<path fill-rule="evenodd" clip-rule="evenodd" d="M7.19018 15.6658C7.08377 15.5596 6.99934 15.4335 6.94173 15.2947C6.88412 15.1558 6.85447 15.007 6.85447 14.8567C6.85447 14.7064 6.88412 14.5576 6.94173 14.4187C6.99934 14.2799 7.08377 14.1538 7.19018 14.0477L13.2397 8.00044L7.19018 1.95322C7.08394 1.84697 6.99966 1.72084 6.94216 1.58203C6.88466 1.44321 6.85507 1.29443 6.85507 1.14418C6.85507 0.993924 6.88466 0.845143 6.94216 0.706328C6.99966 0.567512 7.08394 0.441382 7.19018 0.335137C7.29643 0.228893 7.42256 0.144614 7.56137 0.0871155C7.70019 0.0296166 7.84897 2.21756e-05 7.99922 2.21887e-05C8.14948 2.22018e-05 8.29826 0.0296166 8.43707 0.0871156C8.57589 0.144615 8.70202 0.228893 8.80826 0.335137L15.6645 7.1914C15.7709 7.29755 15.8554 7.42365 15.913 7.56248C15.9706 7.70131 16.0002 7.85014 16.0002 8.00044C16.0002 8.15075 15.9706 8.29958 15.913 8.43841C15.8554 8.57724 15.7709 8.70334 15.6645 8.80948L8.80826 15.6658C8.70211 15.7722 8.57601 15.8566 8.43719 15.9142C8.29836 15.9718 8.14953 16.0015 7.99922 16.0015C7.84892 16.0015 7.70009 15.9718 7.56126 15.9142C7.42243 15.8566 7.29633 15.7722 7.19018 15.6658Z" fill="black"/>
<path fill-rule="evenodd" clip-rule="evenodd" d="M14.8552 8.00036C14.8552 8.30342 14.7509 8.59407 14.5652 8.80837C14.3794 9.02267 14.1275 9.14307 13.8649 9.14307L0.990328 9.14307C0.727671 9.14307 0.475771 9.02267 0.290044 8.80837C0.104318 8.59407 -2.18611e-05 8.30342 -2.18346e-05 8.00035C-2.18081e-05 7.69729 0.104318 7.40663 0.290044 7.19233C0.475771 6.97803 0.727671 6.85764 0.990328 6.85764L13.8649 6.85764C14.1275 6.85764 14.3794 6.97804 14.5652 7.19234C14.7509 7.40664 14.8552 7.69729 14.8552 8.00036Z" fill="black"/>
</svg>
