<svg width="18" height="18" viewBox="0 0 18 18" fill="none" xmlns="http://www.w3.org/2000/svg">
<path d="M16.5434 12.306L13.0434 10.806C12.8939 10.7422 12.7277 10.7288 12.5699 10.7677C12.4121 10.8066 12.2712 10.8957 12.1684 11.0216L10.6184 12.9153C8.18586 11.7684 6.22819 9.81073 5.08125 7.37815L6.975 5.82815C7.10115 5.72555 7.19044 5.58465 7.22934 5.42676C7.26825 5.26888 7.25466 5.10262 7.19063 4.95315L5.69063 1.45315C5.62035 1.29203 5.49605 1.16048 5.33917 1.08118C5.18229 1.00189 5.00266 0.979819 4.83125 1.01878L1.58125 1.76878C1.41599 1.80694 1.26855 1.89999 1.16298 2.03274C1.05741 2.16549 0.999962 2.33011 1 2.49972C1 10.5153 7.49687 16.9997 15.5 16.9997C15.6697 16.9998 15.8343 16.9424 15.9672 16.8368C16.1 16.7313 16.1931 16.5838 16.2312 16.4185L16.9812 13.1685C17.02 12.9962 16.9974 12.8159 16.9175 12.6585C16.8376 12.501 16.7053 12.3764 16.5434 12.306V12.306Z" stroke="black" stroke-width="1.4"/>
</svg>
