<svg width="26" height="26" viewBox="0 0 26 26" fill="none" xmlns="http://www.w3.org/2000/svg">
<path d="M11.7349 3.53027H3.38553C2.75285 3.53027 2.14608 3.78161 1.69871 4.22898C1.25133 4.67635 1 5.28312 1 5.9158V22.6145C1 23.2472 1.25133 23.854 1.69871 24.3013C2.14608 24.7487 2.75285 25 3.38553 25H20.0842C20.7169 25 21.3237 24.7487 21.7711 24.3013C22.2184 23.854 22.4698 23.2472 22.4698 22.6145V14.2652" stroke="white" stroke-width="2" stroke-linecap="round" stroke-linejoin="round"/>
<path d="M20.6808 1.74109C21.1553 1.26658 21.7989 1 22.4699 1C23.141 1 23.7845 1.26658 24.2591 1.74109C24.7336 2.2156 25.0001 2.85918 25.0001 3.53024C25.0001 4.2013 24.7336 4.84487 24.2591 5.31938L12.9278 16.6506L8.15674 17.8434L9.3495 13.0724L20.6808 1.74109Z" stroke="white" stroke-width="2" stroke-linecap="round" stroke-linejoin="round"/>
</svg>
