<svg width="22" height="22" viewBox="0 0 22 22" fill="none" xmlns="http://www.w3.org/2000/svg">
<path d="M6.55556 5.44444V1M15.4444 5.44444V1M3.22222 21H18.7778C19.3671 21 19.9324 20.7659 20.3491 20.3491C20.7659 19.9324 21 19.3671 21 18.7778V5.44444C21 4.85507 20.7659 4.28984 20.3491 3.8731C19.9324 3.45635 19.3671 3.22222 18.7778 3.22222H3.22222C2.63285 3.22222 2.06762 3.45635 1.65087 3.8731C1.23413 4.28984 1 4.85507 1 5.44444V18.7778C1 19.3671 1.23413 19.9324 1.65087 20.3491C2.06762 20.7659 2.63285 21 3.22222 21Z" stroke="black" stroke-width="2" stroke-linecap="round"/>
</svg>
