<svg width="16" height="15" viewBox="0 0 16 15" fill="none" xmlns="http://www.w3.org/2000/svg">
<path d="M14.1511 0.897778C13.9733 0.373334 13.4756 0 12.8889 0H3.11111C2.52444 0 2.03556 0.373334 1.84889 0.897778L0 6.22222V13.3333C0 13.8222 0.4 14.2222 0.888889 14.2222H1.77778C2.26667 14.2222 2.66667 13.8222 2.66667 13.3333V12.4444H13.3333V13.3333C13.3333 13.8222 13.7333 14.2222 14.2222 14.2222H15.1111C15.6 14.2222 16 13.8222 16 13.3333V6.22222L14.1511 0.897778ZM3.42222 1.77778H12.5689L13.5289 4.54222H2.46222L3.42222 1.77778ZM14.2222 10.6667H1.77778V6.22222H14.2222V10.6667Z" fill="black"/>
<path d="M3.99984 9.77775C4.73622 9.77775 5.33317 9.1808 5.33317 8.44442C5.33317 7.70804 4.73622 7.11108 3.99984 7.11108C3.26346 7.11108 2.6665 7.70804 2.6665 8.44442C2.6665 9.1808 3.26346 9.77775 3.99984 9.77775Z" fill="black"/>
<path d="M11.9998 9.77775C12.7362 9.77775 13.3332 9.1808 13.3332 8.44442C13.3332 7.70804 12.7362 7.11108 11.9998 7.11108C11.2635 7.11108 10.6665 7.70804 10.6665 8.44442C10.6665 9.1808 11.2635 9.77775 11.9998 9.77775Z" fill="black"/>
</svg>
