<svg width="30" height="24" viewBox="0 0 30 24" fill="none" xmlns="http://www.w3.org/2000/svg">
<path d="M27.4163 9.27063L26.7138 7.51437L25.4681 4.4C24.3988 1.72687 21.8481 0 18.9688 0H11.0312C8.1525 0 5.60125 1.72687 4.53188 4.4L3.28625 7.51437L2.58375 9.27063C1.07625 9.84375 0 11.2913 0 13V16C0 17.0075 0.385 17.9169 1 18.6206V22C1 23.1044 1.89562 24 3 24H5C6.10437 24 7 23.1044 7 22V20H23V22C23 23.1044 23.8956 24 25 24H27C28.1044 24 29 23.1044 29 22V18.6206C29.615 17.9175 30 17.0081 30 16V13C30 11.2913 28.9237 9.84375 27.4163 9.27063ZM8.24562 5.88562C8.70125 4.74687 9.80437 4 11.0312 4H18.9688C20.1956 4 21.2987 4.74687 21.7544 5.88562L23 9H7L8.24562 5.88562ZM5 15.9875C3.8 15.9875 3 15.19 3 13.9937C3 12.7975 3.8 12 5 12C6.2 12 8 13.7944 8 14.9906C8 16.1869 6.2 15.9875 5 15.9875ZM25 15.9875C23.8 15.9875 22 16.1869 22 14.9906C22 13.7944 23.8 12 25 12C26.2 12 27 12.7975 27 13.9937C27 15.19 26.2 15.9875 25 15.9875Z" fill="black"/>
</svg>
