<svg width="16" height="16" viewBox="0 0 16 16" fill="none" xmlns="http://www.w3.org/2000/svg">
<path d="M7.99976 14.4C11.5198 14.4 14.3998 11.52 14.3998 8C14.3998 4.48 11.5198 1.6 7.99976 1.6C4.47976 1.6 1.59976 4.48 1.59976 8C1.59976 11.52 4.47976 14.4 7.99976 14.4ZM7.99976 0C12.3998 0 15.9998 3.6 15.9998 8C15.9998 12.4 12.3998 16 7.99976 16C3.59976 16 -0.000244141 12.4 -0.000244141 8C-0.000244141 3.6 3.59976 0 7.99976 0ZM11.9998 9.52L11.4398 10.56L7.19976 8.24V4H8.39976V7.52L11.9998 9.52Z" fill="black"/>
</svg>
