<svg width="16" height="16" viewBox="0 0 16 16" fill="none" xmlns="http://www.w3.org/2000/svg">
<path d="M3.99976 1.6C3.99976 1.17565 4.16833 0.768687 4.46839 0.468629C4.76844 0.168571 5.17541 0 5.59976 0H10.3998C10.8241 0 11.2311 0.168571 11.5311 0.468629C11.8312 0.768687 11.9998 1.17565 11.9998 1.6V3.2H15.1998C15.4119 3.2 15.6154 3.28429 15.7654 3.43431C15.9155 3.58434 15.9998 3.78783 15.9998 4C15.9998 4.21217 15.9155 4.41566 15.7654 4.56569C15.6154 4.71571 15.4119 4.8 15.1998 4.8H14.3446L13.651 14.5136C13.6222 14.9173 13.4416 15.2951 13.1454 15.5709C12.8493 15.8467 12.4596 16 12.055 16H3.94376C3.53907 16 3.14941 15.8467 2.85326 15.5709C2.55712 15.2951 2.37649 14.9173 2.34776 14.5136L1.65576 4.8H0.799756C0.587583 4.8 0.3841 4.71571 0.23407 4.56569C0.0840413 4.41566 -0.000244141 4.21217 -0.000244141 4C-0.000244141 3.78783 0.0840413 3.58434 0.23407 3.43431C0.3841 3.28429 0.587583 3.2 0.799756 3.2H3.99976V1.6ZM5.59976 3.2H10.3998V1.6H5.59976V3.2ZM3.25896 4.8L3.94456 14.4H12.0558L12.7414 4.8H3.25896ZM6.39976 6.4C6.61193 6.4 6.81541 6.48429 6.96544 6.63432C7.11547 6.78434 7.19976 6.98783 7.19976 7.2V12C7.19976 12.2122 7.11547 12.4157 6.96544 12.5657C6.81541 12.7157 6.61193 12.8 6.39976 12.8C6.18758 12.8 5.9841 12.7157 5.83407 12.5657C5.68404 12.4157 5.59976 12.2122 5.59976 12V7.2C5.59976 6.98783 5.68404 6.78434 5.83407 6.63432C5.9841 6.48429 6.18758 6.4 6.39976 6.4ZM9.59976 6.4C9.81193 6.4 10.0154 6.48429 10.1654 6.63432C10.3155 6.78434 10.3998 6.98783 10.3998 7.2V12C10.3998 12.2122 10.3155 12.4157 10.1654 12.5657C10.0154 12.7157 9.81193 12.8 9.59976 12.8C9.38758 12.8 9.1841 12.7157 9.03407 12.5657C8.88404 12.4157 8.79976 12.2122 8.79976 12V7.2C8.79976 6.98783 8.88404 6.78434 9.03407 6.63432C9.1841 6.48429 9.38758 6.4 9.59976 6.4Z" fill="black"/>
</svg>
