<svg width="37" height="32" viewBox="0 0 37 32" fill="none" xmlns="http://www.w3.org/2000/svg">
<path d="M34.2857 10.2859H25.1429C24.5367 10.2859 23.9553 10.5267 23.5266 10.9554C23.098 11.384 22.8572 11.9654 22.8572 12.5716V29.7145C22.8572 30.3207 23.098 30.902 23.5266 31.3307C23.9553 31.7594 24.5367 32.0002 25.1429 32.0002H34.2857C34.892 32.0002 35.4733 31.7594 35.902 31.3307C36.3307 30.902 36.5715 30.3207 36.5715 29.7145V12.5716C36.5715 11.9654 36.3307 11.384 35.902 10.9554C35.4733 10.5267 34.892 10.2859 34.2857 10.2859ZM34.2857 12.5716V25.143H25.1429V12.5716H34.2857ZM25.1429 29.7145V26.9716H34.2857V29.7145H25.1429Z" fill="black"/>
<path d="M20.5714 20.5714H2.28571V2.28571H29.7143V8H32V2.28571C32 1.6795 31.7592 1.09812 31.3305 0.66947C30.9019 0.240816 30.3205 0 29.7143 0H2.28571C1.67951 0 1.09812 0.240816 0.66947 0.66947C0.240816 1.09812 0 1.6795 0 2.28571V20.5714C0 21.1776 0.240816 21.759 0.66947 22.1877C1.09812 22.6163 1.67951 22.8571 2.28571 22.8571H20.5714V20.5714Z" fill="black"/>
<path d="M20.5714 25.1426H7.99999C7.69688 25.1426 7.40619 25.263 7.19187 25.4773C6.97754 25.6916 6.85713 25.9823 6.85713 26.2854C6.85713 26.5885 6.97754 26.8792 7.19187 27.0936C7.40619 27.3079 7.69688 27.4283 7.99999 27.4283H20.5714V25.1426Z" fill="black"/>
</svg>
