<svg width="24" height="21" viewBox="0 0 24 21" fill="none" xmlns="http://www.w3.org/2000/svg">
<path d="M17.0013 12.3021C17.2153 11.7161 17.3239 11.0951 17.3218 10.4694C17.3218 9.08003 16.7831 7.74759 15.8242 6.76517C14.8653 5.78275 13.5648 5.23083 12.2087 5.23083C11.6055 5.23156 11.0073 5.34276 10.4423 5.5592L11.6423 6.82683C11.8247 6.79693 12.0091 6.78162 12.1938 6.78102C13.1526 6.77897 14.0733 7.16569 14.7548 7.85675C15.4363 8.5478 15.8232 9.48704 15.8311 10.4694C15.8305 10.6586 15.8155 10.8476 15.7864 11.0345L17.0013 12.3021Z" fill="#939393"/>
<path d="M23.7839 10.1105C21.2721 5.35303 16.8671 2.47412 11.9926 2.47412C10.6654 2.47731 9.3471 2.6964 8.08698 3.12321L9.28698 4.3603C10.1708 4.12627 11.0797 4.00571 11.9926 4.00139C16.1888 4.00139 20.005 6.39921 22.2783 10.4388C21.4444 11.9376 20.3389 13.2594 19.0211 14.3334L20.0795 15.4178C21.6045 14.1573 22.8711 12.6001 23.8062 10.8359L24 10.4694L23.7839 10.1105Z" fill="#939393"/>
<path d="M1.8559 1.13782L5.18012 4.54364C3.07895 5.92972 1.36167 7.84695 0.193789 10.1105L0 10.4695L0.193789 10.836C2.70559 15.5935 7.11056 18.4724 11.9851 18.4724C13.8877 18.472 15.7656 18.0308 17.4783 17.1818L21.205 21L22.5093 19.8545L3.13043 0L1.8559 1.13782ZM9.12298 8.58327L14.0795 13.6615C13.5195 14.0166 12.8748 14.2068 12.2161 14.2113C11.7376 14.2113 11.2637 14.1143 10.8219 13.926C10.38 13.7377 9.9789 13.4617 9.64154 13.1139C9.30419 12.7662 9.03729 12.3535 8.85619 11.8997C8.6751 11.4458 8.58339 10.9598 8.58633 10.4695C8.59473 9.80247 8.78025 9.15041 9.12298 8.58327ZM8.04224 7.476C7.34492 8.48354 7.01808 9.71139 7.11959 10.9421C7.2211 12.1729 7.7444 13.3271 8.59685 14.2005C9.4493 15.0739 10.5759 15.61 11.7772 15.714C12.9784 15.818 14.1768 15.4832 15.1602 14.7687L16.3528 15.9905C14.9723 16.5951 13.4865 16.9069 11.9851 16.9069C7.78882 16.9069 3.97267 14.5091 1.69938 10.4695C2.79034 8.49028 4.36153 6.83317 6.26087 5.65855L8.04224 7.476Z" fill="#939393"/>
</svg>
