<svg width="22" height="24" viewBox="0 0 22 24" fill="none" xmlns="http://www.w3.org/2000/svg">
<path d="M0 20.7259C0.0626806 20.3258 0.11073 19.9257 0.189414 19.5256C0.343314 18.4652 0.855864 17.4895 1.64172 16.761C2.29493 16.2238 3.07593 15.8646 3.90891 15.7182C4.54555 15.598 5.18916 15.5187 5.83593 15.4808C6.01197 15.4661 6.04403 15.5674 6.09071 15.6861C6.85087 17.5817 7.6119 19.4767 8.37385 21.3714C8.40185 21.4407 8.43254 21.5048 8.48455 21.6248C8.5859 21.31 8.6726 21.0473 8.75129 20.7819C9.05936 19.8004 9.36211 18.8162 9.68484 17.8373C9.71218 17.7665 9.71999 17.6897 9.70755 17.6149C9.69512 17.5401 9.66286 17.47 9.61411 17.4119C9.16734 16.7837 8.72995 16.1463 8.26852 15.4821H12.6895C12.7162 15.5728 12.6295 15.6261 12.5855 15.6888C12.1783 16.2801 11.7684 16.8695 11.3559 17.4572C11.3201 17.4966 11.2953 17.5446 11.2838 17.5965C11.2724 17.6485 11.2747 17.7025 11.2905 17.7533C11.6719 18.9896 12.044 20.2298 12.4188 21.4674C12.4294 21.5034 12.4267 21.5474 12.4974 21.5688C12.6134 21.2874 12.7308 21.0033 12.8481 20.7179C13.5354 19.0367 14.2232 17.3558 14.9113 15.6755C14.95 15.5794 14.9634 15.4661 15.1234 15.4768C16.1316 15.5036 17.1298 15.6835 18.084 16.0102C18.7872 16.2824 19.4057 16.7361 19.8766 17.325C20.3474 17.9139 20.6538 18.6171 20.7646 19.3629C20.8749 19.8666 20.9417 20.3788 20.9646 20.894C20.9727 20.9782 20.9857 21.0619 21.0034 21.1447V22.0356C20.9887 22.0876 20.9687 22.1382 20.958 22.1903C20.8945 22.4924 20.7698 22.7783 20.5919 23.0305C20.4139 23.2828 20.1864 23.496 19.9231 23.6572C19.6292 23.8139 19.315 23.9293 18.9896 24H2.01648C1.97514 23.9546 1.91777 23.9626 1.86443 23.9533C1.4594 23.8859 1.08087 23.7079 0.770679 23.4389C0.460486 23.1699 0.230717 22.8204 0.106713 22.429C0.0653706 22.3143 0.0346744 22.1956 0 22.0796V20.7259Z" fill="black"/>
<path d="M12.2375 0.00266579C12.315 0.0414275 12.4027 0.0549512 12.4882 0.0413401C13.3888 0.0390754 14.2779 0.242998 15.0875 0.637476C16.2379 1.12025 17.372 1.63992 18.4896 2.19649C18.6303 2.25767 18.7455 2.36549 18.816 2.50178C18.8864 2.63807 18.9077 2.79449 18.8763 2.94465C18.833 3.19105 18.7559 3.43027 18.6469 3.65547C18.4122 4.15692 18.1762 4.65837 17.9201 5.14914C17.8269 5.37986 17.6609 5.57386 17.4474 5.70167C17.2339 5.82948 16.9845 5.88412 16.7372 5.8573C16.6825 5.8573 16.6278 5.8573 16.5731 5.8573C16.3558 5.83863 16.2064 5.84796 16.133 6.13602C16.041 6.49477 15.6996 6.66948 15.3862 6.83751C14.6815 7.17275 13.9294 7.39765 13.1564 7.50433C11.7065 7.74584 10.2306 7.79069 8.76876 7.63769C7.67533 7.57501 6.60313 7.30956 5.60676 6.85485C5.20667 6.65747 4.83052 6.43209 4.75183 5.93598C4.73716 5.8453 4.67187 5.85463 4.61053 5.85463C4.47014 5.84752 4.32943 5.84752 4.18905 5.85463C3.97721 5.87933 3.76297 5.8385 3.57506 5.73763C3.38715 5.63676 3.23467 5.48071 3.13819 5.2905C2.75144 4.6399 2.42636 3.95454 2.16728 3.24338C2.09403 3.06121 2.0706 2.86283 2.09931 2.66859C2.11031 2.57498 2.1443 2.48555 2.19829 2.40829C2.25228 2.33103 2.32458 2.26834 2.4087 2.22583C3.93801 1.43121 5.52243 0.747522 7.14974 0.180038C7.50611 0.0911774 7.87206 0.0463904 8.23934 0.0466768C8.40264 0.0593573 8.56683 0.0435635 8.72472 0L12.2375 0.00266579Z" fill="black"/>
<path d="M10.3825 14.3405C9.536 14.3453 8.69829 14.1693 7.9253 13.8243C7.1523 13.4793 6.46182 12.9733 5.90011 12.34C5.36827 11.7491 4.97224 11.0489 4.73978 10.2886C4.50731 9.52834 4.4441 8.72639 4.55451 7.93907C4.55451 7.9164 4.55451 7.89239 4.56518 7.86972C4.6852 7.3136 4.8692 7.21491 5.37598 7.48564C6.4331 8.06382 7.59447 8.42646 8.79276 8.55254C9.7581 8.64019 10.7294 8.64019 11.6948 8.55254C12.6539 8.48681 13.5978 8.27825 14.4954 7.93374C14.8874 7.7777 15.2582 7.57765 15.6343 7.38828C16.0104 7.1989 16.1558 7.25492 16.3411 7.623C16.4563 7.8808 16.5127 8.16092 16.5065 8.44318C16.5485 9.73959 16.1432 11.011 15.3586 12.0438C14.5739 13.0767 13.4578 13.8081 12.1976 14.1151C11.6038 14.2628 10.9943 14.3384 10.3825 14.3405Z" fill="black"/>
</svg>
