<svg width="16" height="16" viewBox="0 0 16 16" fill="none" xmlns="http://www.w3.org/2000/svg">
<path d="M8.37085e-09 7.9999C0.000200003 3.58126 3.58831 -0.00338216 8.0076 2.39476e-06C12.4213 0.00338695 16.0038 3.59142 16 8.00488C15.9962 12.4203 12.4117 16.0016 7.9972 16C3.58331 15.9986 -0.000199987 12.414 8.37085e-09 7.9999ZM6.04965 7.12708C5.73086 7.64711 5.61306 8.19621 5.71666 8.78572C5.82125 9.3806 6.11825 9.8624 6.59563 10.2323C7.37941 10.8397 8.49619 10.8666 9.31497 10.2998C9.73596 10.0083 10.0355 9.6219 10.1977 9.13751C10.4329 8.43511 10.3389 7.76637 9.96395 7.14122C10.1521 7.14122 10.3347 7.13704 10.5169 7.14182C11.5265 7.16869 12.5351 7.21807 13.5433 7.27839C13.8925 7.2993 14.2418 7.3214 14.5908 7.34628C14.6634 7.35146 14.6812 7.33414 14.6704 7.25988C14.643 7.07293 14.6192 6.88539 14.5828 6.69963C13.8669 3.0461 10.3149 0.687068 6.64543 1.42908C3.8127 2.00187 1.63076 4.39953 1.33357 7.26267C1.32557 7.33951 1.34497 7.35246 1.41476 7.34688C1.70376 7.32458 1.99295 7.30388 2.28254 7.28676C3.46711 7.21707 4.65208 7.16133 5.83825 7.12728C5.90345 7.12549 5.96865 7.12708 6.04965 7.12708ZM4.79088 9.80606C4.57429 9.80606 4.35769 9.80626 4.1409 9.80606C3.32592 9.80507 2.53794 9.94921 1.77496 10.2353C1.69816 10.2642 1.69156 10.2932 1.71856 10.3637C1.90195 10.8431 2.13115 11.299 2.42054 11.7233C3.39151 13.146 4.71128 14.0788 6.38544 14.5126C6.45744 14.5313 6.48564 14.5134 6.50924 14.4489C6.55943 14.3119 6.61923 14.1785 6.66963 14.0415C7.04922 13.0065 7.07242 11.9662 6.70063 10.925C6.56064 10.5329 6.34804 10.1825 6.04205 9.89286C5.97825 9.83254 5.91205 9.80307 5.82065 9.80447C5.47746 9.80905 5.13407 9.80606 4.79088 9.80606ZM9.03457 12.4607C9.02697 13.065 9.21917 13.8894 9.50116 14.472C9.52476 14.5205 9.54756 14.5331 9.60056 14.5168C9.76275 14.4668 9.92935 14.4306 10.0895 14.3748C12.1045 13.675 13.4983 12.3317 14.2824 10.3579C14.3074 10.295 14.3 10.2678 14.2324 10.2421C13.5793 9.9948 12.9041 9.8415 12.2067 9.8196C11.5141 9.7979 10.8203 9.81124 10.1269 9.80646C10.0619 9.80606 10.0209 9.83811 9.97915 9.87614C9.77515 10.0617 9.61396 10.2801 9.48396 10.5216C9.15797 11.1276 9.04377 11.7822 9.03457 12.4607Z" fill="black"/>
<path d="M7.95652 10.3223C6.88275 10.2904 6.03357 9.40148 6.06557 8.34271C6.09817 7.26303 6.98635 6.41868 8.05472 6.45213C9.1255 6.48558 9.97027 7.37831 9.93608 8.44026C9.90148 9.50739 9.0117 10.3535 7.95652 10.3223Z" fill="black"/>
</svg>
