<svg width="17" height="22" viewBox="0 0 17 22" fill="none" xmlns="http://www.w3.org/2000/svg">
<path d="M3 16L6 18" stroke="#F9F8F8"/>
<path fill-rule="evenodd" clip-rule="evenodd" d="M14.0286 1.00007C15.86 1.03534 17.3249 3.27279 16.1113 4.96917L6.4103 18.354C6.34382 18.436 6.32267 18.4547 6.23229 18.5111L1.81469 20.946C1.42847 21.1314 0.932377 20.8151 1.00764 20.3649L2.08966 15.6428C2.1152 15.5525 2.12537 15.5301 2.17673 15.451L11.8778 2.06616C12.3662 1.40059 13.1694 0.993662 14.0286 1.00007ZM13.9773 2.06861C13.5043 2.07663 13.0499 2.30855 12.7739 2.68475L3.1382 15.9795L2.34928 19.4231L5.58351 17.6404C8.79659 13.2069 12.0377 8.79243 15.2227 4.33999C15.8098 3.49727 15.2181 2.12018 14.0504 2.06968C14.0259 2.06888 14.0015 2.06861 13.9773 2.06861Z" fill="#F9F8F8"/>
<path d="M14.0286 1.00007L14.0315 0.850092L14.0297 0.850079L14.0286 1.00007ZM16.1113 4.96917L16.2328 5.0572L16.2333 5.05645L16.1113 4.96917ZM6.4103 18.354L6.527 18.4486L6.53175 18.442L6.4103 18.354ZM6.23229 18.5111L6.30481 18.6427L6.31169 18.6384L6.23229 18.5111ZM1.81469 20.946L1.87971 21.0814L1.8871 21.0774L1.81469 20.946ZM1.00764 20.3649L0.861172 20.3313L0.859696 20.3401L1.00764 20.3649ZM2.08966 15.6428L1.94514 15.602L1.94345 15.6093L2.08966 15.6428ZM2.17673 15.451L2.05512 15.3629L2.05094 15.3693L2.17673 15.451ZM11.8778 2.06616L11.7568 1.97742L11.7563 1.97813L11.8778 2.06616ZM13.9773 2.06861V1.91859L13.9748 1.91863L13.9773 2.06861ZM12.7739 2.68475L12.6529 2.59601L12.6524 2.59672L12.7739 2.68475ZM3.1382 15.9795L3.01675 15.8915L2.99881 15.9163L2.99199 15.946L3.1382 15.9795ZM2.34928 19.4231L2.20307 19.3896L2.12825 19.7162L2.42169 19.5544L2.34928 19.4231ZM5.58351 17.6404L5.65592 17.7718L5.68529 17.7556L5.70497 17.7284L5.58351 17.6404ZM15.2227 4.33999L15.3448 4.42727L15.3458 4.42572L15.2227 4.33999ZM14.0504 2.06968L14.0568 1.91981L14.0553 1.91976L14.0504 2.06968ZM14.0257 1.15005C14.8808 1.16651 15.6602 1.69893 16.0816 2.43614C16.5009 3.16966 16.5566 4.08892 15.9893 4.88189L16.2333 5.05645C16.8796 4.15303 16.8097 3.10538 16.3421 2.28727C15.8765 1.47285 15.0078 0.868904 14.0315 0.850102L14.0257 1.15005ZM15.9899 4.88114L6.28884 18.266L6.53175 18.442L16.2328 5.0572L15.9899 4.88114ZM6.29376 18.2596C6.26097 18.3 6.24576 18.3167 6.23098 18.3297C6.21617 18.3428 6.19752 18.356 6.1529 18.3839L6.31169 18.6384C6.35744 18.6098 6.39456 18.5855 6.42953 18.5546C6.46454 18.5237 6.49314 18.49 6.52683 18.4485L6.29376 18.2596ZM6.15989 18.3798L1.74228 20.8146L1.8871 21.0774L6.3047 18.6425L6.15989 18.3798ZM1.74977 20.8108C1.61091 20.8775 1.44733 20.8558 1.32319 20.7703C1.20125 20.6863 1.12889 20.5493 1.15559 20.3896L0.859696 20.3401C0.811134 20.6306 0.949182 20.877 1.15303 21.0173C1.35467 21.1562 1.63225 21.2 1.87961 21.0812L1.74977 20.8108ZM1.15385 20.3984L2.23587 15.6763L1.94345 15.6093L0.861433 20.3314L1.15385 20.3984ZM2.23399 15.6837C2.24661 15.6391 2.253 15.6204 2.26011 15.6047C2.26722 15.589 2.27716 15.5718 2.30253 15.5327L2.05094 15.3693C2.02494 15.4093 2.00411 15.4428 1.98692 15.4807C1.96972 15.5186 1.95825 15.5563 1.94532 15.602L2.23399 15.6837ZM2.29819 15.539L11.9992 2.15419L11.7563 1.97813L2.05528 15.363L2.29819 15.539ZM11.9987 2.1549C12.4583 1.52863 13.2158 1.14401 14.0275 1.15007L14.0297 0.850079C13.1229 0.843311 12.2741 1.27256 11.7568 1.97742L11.9987 2.1549ZM13.9748 1.91863C13.4559 1.92743 12.9573 2.18122 12.6529 2.59601L12.8948 2.77349C13.1425 2.43588 13.5527 2.22583 13.9798 2.21859L13.9748 1.91863ZM12.6524 2.59672L3.01675 15.8915L3.25966 16.0676L12.8953 2.77278L12.6524 2.59672ZM2.99199 15.946L2.20307 19.3896L2.4955 19.4566L3.28441 16.013L2.99199 15.946ZM2.42169 19.5544L5.65592 17.7718L5.51111 17.509L2.27688 19.2917L2.42169 19.5544ZM5.70497 17.7284C8.91728 13.296 12.1594 8.88014 15.3447 4.42726L15.1008 4.25272C11.916 8.70471 8.6759 13.1178 5.46206 17.5524L5.70497 17.7284ZM15.3458 4.42572C15.6759 3.95193 15.6692 3.33778 15.4296 2.84244C15.1888 2.34446 14.7038 1.9478 14.0568 1.91982L14.0439 2.21954C14.5646 2.24206 14.9594 2.55919 15.1595 2.97306C15.361 3.38957 15.3566 3.88533 15.0997 4.25425L15.3458 4.42572ZM14.0553 1.91976C14.0287 1.91889 14.0025 1.91861 13.9773 1.91861V2.21861C14.0004 2.21861 14.0231 2.21887 14.0454 2.2196L14.0553 1.91976Z" fill="#F9F8F8"/>
</svg>
