<svg width="16" height="16" viewBox="0 0 16 16" fill="none" xmlns="http://www.w3.org/2000/svg">
<path fill-rule="evenodd" clip-rule="evenodd" d="M5.69922 0.57067C5.69922 0.721827 5.63917 0.866792 5.53229 0.973676C5.4254 1.08056 5.28044 1.14061 5.12928 1.14061L1.13972 1.14061L1.13972 5.13017C1.13972 5.28133 1.07967 5.42629 0.97279 5.53317C0.865906 5.64006 0.720939 5.70011 0.569782 5.70011C0.418626 5.70011 0.27366 5.64006 0.166776 5.53317C0.0598924 5.42629 -0.000154726 5.28133 -0.000154719 5.13017L-0.00015452 0.57067C-0.000154514 0.419513 0.0598926 0.274547 0.166777 0.167663C0.273661 0.060779 0.418626 0.000732191 0.569783 0.000732198L5.12928 0.000732397C5.28044 0.000732404 5.4254 0.0607792 5.53229 0.167663C5.63917 0.274547 5.69922 0.419513 5.69922 0.57067Z" fill="#40A8E2"/>
<path fill-rule="evenodd" clip-rule="evenodd" d="M6.14363 6.10361C6.09068 6.15668 6.02779 6.19879 5.95855 6.22753C5.88931 6.25626 5.81508 6.27105 5.74011 6.27105C5.66514 6.27105 5.59091 6.25626 5.52167 6.22753C5.45243 6.19879 5.38954 6.15668 5.33659 6.10361L0.207159 0.974172C0.10014 0.867153 0.0400181 0.722004 0.0400181 0.570657C0.0400181 0.419309 0.10014 0.27416 0.207159 0.167141C0.314178 0.060122 0.459327 -6.79304e-07 0.610675 -6.72689e-07C0.762022 -6.66073e-07 0.907171 0.060122 1.01419 0.167141L6.14363 5.29658C6.1967 5.34952 6.23881 5.41241 6.26754 5.48165C6.29628 5.5509 6.31107 5.62513 6.31107 5.70009C6.31107 5.77506 6.29628 5.84929 6.26754 5.91853C6.23881 5.98777 6.1967 6.05067 6.14363 6.10361ZM15.8326 15.7925C15.7796 15.8456 15.7167 15.8877 15.6475 15.9165C15.5782 15.9452 15.504 15.96 15.429 15.96C15.3541 15.96 15.2798 15.9452 15.2106 15.9165C15.1414 15.8877 15.0785 15.8456 15.0255 15.7925L9.89609 10.6631C9.78907 10.5561 9.72895 10.4109 9.72895 10.2596C9.72895 10.1082 9.78907 9.96309 9.89609 9.85608C10.0031 9.74906 10.1483 9.68893 10.2996 9.68893C10.451 9.68893 10.5961 9.74906 10.7031 9.85608L15.8326 14.9855C15.8856 15.0385 15.9277 15.1013 15.9565 15.1706C15.9852 15.2398 16 15.3141 16 15.389C16 15.464 15.9852 15.5382 15.9565 15.6075C15.9277 15.6767 15.8856 15.7396 15.8326 15.7925Z" fill="#40A8E2"/>
<path fill-rule="evenodd" clip-rule="evenodd" d="M15.4291 10.3007C15.5802 10.3007 15.7252 10.3607 15.8321 10.4676C15.939 10.5745 15.999 10.7194 15.999 10.8706L15.999 15.4301C15.999 15.5813 15.939 15.7262 15.8321 15.8331C15.7252 15.94 15.5802 16 15.4291 16L10.8696 16C10.7184 16 10.5735 15.94 10.4666 15.8331C10.3597 15.7262 10.2996 15.5813 10.2996 15.4301C10.2996 15.2789 10.3597 15.134 10.4666 15.0271C10.5735 14.9202 10.7184 14.8602 10.8696 14.8602L14.8591 14.8602L14.8591 10.8706C14.8591 10.7194 14.9192 10.5745 15.0261 10.4676C15.133 10.3607 15.2779 10.3007 15.4291 10.3007Z" fill="#40A8E2"/>
</svg>
