<svg width="24" height="24" viewBox="0 0 24 24" fill="none" xmlns="http://www.w3.org/2000/svg">
<mask id="mask0" mask-type="alpha" maskUnits="userSpaceOnUse" x="0" y="0" width="24" height="24">
<rect width="24" height="24" fill="white"/>
</mask>
<g mask="url(#mask0)">
<path fill-rule="evenodd" clip-rule="evenodd" d="M13 12C11.1362 12 9.57006 10.7252 9.12602 9H3C2.44771 9 2 8.55228 2 8C2 7.44771 2.44772 7 3 7H9.12602C9.57006 5.27477 11.1362 4 13 4C15.2091 4 17 5.79086 17 8C17 10.2091 15.2091 12 13 12ZM15 8C15 9.10457 14.1046 10 13 10C11.8954 10 11 9.10457 11 8C11 6.89543 11.8954 6 13 6C14.1046 6 15 6.89543 15 8C15 8 15 9.10457 15 8ZM21 7C21.5523 7 22 7.44771 22 8C22 8.55228 21.5523 9 21 9H19C18.4477 9 18 8.55228 18 8C18 7.44771 18.4477 7 19 7H21ZM8 20C6.13616 20 4.57006 18.7252 4.12602 17H3C2.44772 17 2 16.5523 2 16C2 15.4477 2.44772 15 3 15H4.12602C4.57006 13.2748 6.13616 12 8 12C10.2091 12 12 13.7909 12 16C12 18.2091 10.2091 20 8 20ZM10 16C10 17.1046 9.10457 18 8 18C6.89543 18 6 17.1046 6 16C6 14.8954 6.89543 14 8 14C9.10457 14 10 14.8954 10 16C10 16 10 17.1046 10 16ZM21 17C21.5523 17 22 16.5523 22 16C22 15.4477 21.5523 15 21 15H14C13.4477 15 13 15.4477 13 16C13 16.5523 13.4477 17 14 17H21Z" fill="white"/>
</g>
</svg>
