<svg width="28" height="28" viewBox="0 0 28 28" fill="none" xmlns="http://www.w3.org/2000/svg">
<path d="M14 19C15.3261 19 16.5979 18.4732 17.5355 17.5355C18.4732 16.5979 19 15.3261 19 14C19 12.6739 18.4732 11.4021 17.5355 10.4645C16.5979 9.52678 15.3261 9 14 9C12.6739 9 11.4021 9.52678 10.4645 10.4645C9.52678 11.4021 9 12.6739 9 14C9 15.3261 9.52678 16.5979 10.4645 17.5355C11.4021 18.4732 12.6739 19 14 19ZM15 1C15 0.734784 14.8946 0.48043 14.7071 0.292893C14.5196 0.105357 14.2652 0 14 0C13.7348 0 13.4804 0.105357 13.2929 0.292893C13.1054 0.48043 13 0.734784 13 1V4.05C10.7051 4.28138 8.56062 5.29866 6.92964 6.92964C5.29866 8.56062 4.28138 10.7051 4.05 13H1C0.734784 13 0.48043 13.1054 0.292893 13.2929C0.105357 13.4804 0 13.7348 0 14C0 14.2652 0.105357 14.5196 0.292893 14.7071C0.48043 14.8946 0.734784 15 1 15H4.05C4.28094 17.2953 5.29804 19.4402 6.92906 21.0716C8.56007 22.703 10.7048 23.7205 13 23.952V27C13 27.2652 13.1054 27.5196 13.2929 27.7071C13.4804 27.8946 13.7348 28 14 28C14.2652 28 14.5196 27.8946 14.7071 27.7071C14.8946 27.5196 15 27.2652 15 27V23.952C17.2952 23.7205 19.4399 22.703 21.0709 21.0716C22.702 19.4402 23.7191 17.2953 23.95 15H27C27.2652 15 27.5196 14.8946 27.7071 14.7071C27.8946 14.5196 28 14.2652 28 14C28 13.7348 27.8946 13.4804 27.7071 13.2929C27.5196 13.1054 27.2652 13 27 13H23.95C23.7186 10.7051 22.7013 8.56062 21.0704 6.92964C19.4394 5.29866 17.2949 4.28138 15 4.05V1ZM14 22C11.8783 22 9.84344 21.1571 8.34315 19.6569C6.84285 18.1566 6 16.1217 6 14C6 11.8783 6.84285 9.84344 8.34315 8.34315C9.84344 6.84285 11.8783 6 14 6C16.1217 6 18.1566 6.84285 19.6569 8.34315C21.1571 9.84344 22 11.8783 22 14C22 16.1217 21.1571 18.1566 19.6569 19.6569C18.1566 21.1571 16.1217 22 14 22Z" fill="black"/>
</svg>
