<svg width="12" height="12" viewBox="0 0 12 12" fill="none" xmlns="http://www.w3.org/2000/svg">
<path d="M1.37945 0.22511C1.22821 0.0790326 1.02566 -0.00179681 0.815412 3.03149e-05C0.605164 0.00185744 0.404045 0.0861952 0.255372 0.234879C0.106698 0.383562 0.022366 0.584694 0.020539 0.794956C0.018712 1.00522 0.0995361 1.20779 0.245603 1.35903L4.87641 5.99015L0.244802 10.6213C0.168215 10.6952 0.107126 10.7837 0.065101 10.8816C0.0230758 10.9794 0.000955488 11.0846 3.02763e-05 11.1911C-0.000894936 11.2976 0.0193936 11.4032 0.0597124 11.5017C0.100031 11.6003 0.159573 11.6898 0.234862 11.7651C0.310152 11.8404 0.399683 11.9 0.49823 11.9403C0.596777 11.9806 0.702367 12.0009 0.808839 12C0.91531 11.999 1.02053 11.9769 1.11836 11.9349C1.2162 11.8929 1.30468 11.8318 1.37865 11.7552L6.01025 7.12407L10.6411 11.7552C10.7923 11.9013 10.9948 11.9821 11.2051 11.9803C11.4153 11.9784 11.6165 11.8941 11.7651 11.7454C11.9138 11.5967 11.9981 11.3956 12 11.1853C12.0018 10.9751 11.921 10.7725 11.7749 10.6213L7.1441 5.99015L11.7749 1.35903C11.921 1.20779 12.0018 1.00522 12 0.794956C11.9981 0.584694 11.9138 0.383562 11.7651 0.234879C11.6165 0.0861952 11.4153 0.00185744 11.2051 3.03149e-05C10.9948 -0.00179681 10.7923 0.0790326 10.6411 0.22511L6.01025 4.85622L1.37945 0.224308V0.22511Z" fill="#DCD8D8"/>
</svg>
