<svg width="21" height="24" viewBox="0 0 21 24" fill="none" xmlns="http://www.w3.org/2000/svg">
<path d="M18.8571 10.2857H17.1429V6.85714C17.1429 5.03852 16.4204 3.29437 15.1345 2.00841C13.8485 0.722447 12.1043 0 10.2857 0C8.46709 0 6.72295 0.722447 5.43698 2.00841C4.15102 3.29437 3.42857 5.03852 3.42857 6.85714V10.2857H1.71429L0 12V22.2857L1.71429 24H18.8571L20.5714 22.2857V12L18.8571 10.2857ZM5.14286 6.85714C5.14286 5.49317 5.68469 4.18507 6.64917 3.22059C7.61364 2.25612 8.92175 1.71429 10.2857 1.71429C11.6497 1.71429 12.9578 2.25612 13.9223 3.22059C14.8867 4.18507 15.4286 5.49317 15.4286 6.85714V10.2857H5.14286V6.85714ZM18.8571 22.2857H1.71429V12H18.8571V22.2857Z" fill="black"/>
</svg>
