<svg width="16" height="16" viewBox="0 0 16 16" fill="none" xmlns="http://www.w3.org/2000/svg">
<path d="M14.3998 0.750001L14.4005 0.75C14.6252 0.749774 14.8409 0.83871 15.0001 0.99729C15.159 1.15562 15.2488 1.37047 15.2498 1.5948V11.2064C15.2498 11.6679 14.8706 12.05 14.3998 12.05H9.08055H8.86405L8.68086 12.1654L4.74976 14.6413V12.8V12.05H3.99976H1.59976C1.12888 12.05 0.749756 11.6679 0.749756 11.2064V1.5936C0.749756 1.1321 1.12888 0.750001 1.59976 0.750001L14.3998 0.750001Z" stroke="black" stroke-width="1.5"/>
<path d="M9.09975 8.3H4.49976V7.7H9.09975V8.3ZM11.4998 5.1H4.49976V4.5H11.4998V5.1Z" stroke="black"/>
</svg>
