<svg width="19" height="16" viewBox="0 0 19 16" fill="none" xmlns="http://www.w3.org/2000/svg">
<path d="M19 6.33498C15.6821 2.96101 11.0596 1.73092 6.77399 2.62713L8.95134 4.8413C11.9495 4.69193 14.9909 5.76387 17.2719 8.09226L19 6.33498ZM15.5439 9.84953C14.4721 8.76001 13.1323 7.98318 11.6644 7.60022L14.7144 10.7018L15.5439 9.84953ZM0.864029 1.10708L3.5166 3.78693C2.24648 4.41955 1.05412 5.26304 0 6.33498L1.71942 8.09226C2.79081 7.00275 4.02638 6.1944 5.34834 5.65843L7.28377 7.62658C5.83544 8.00635 4.51369 8.77397 3.45612 9.84953V9.85832L5.17553 11.6068C6.30434 10.46 7.83098 9.80998 9.42656 9.79681L15.5352 16L16.6326 14.8929L1.97863 0L0.864029 1.10708ZM6.91223 13.3641L9.50432 16L12.0964 13.3641C11.7563 13.0173 11.3523 12.7422 10.9075 12.5545C10.4627 12.3668 9.9859 12.2702 9.50432 12.2702C9.02274 12.2702 8.5459 12.3668 8.1011 12.5545C7.65631 12.7422 7.2523 13.0173 6.91223 13.3641Z" fill="black"/>
</svg>
