<svg width="27" height="24" viewBox="0 0 27 24" fill="none" xmlns="http://www.w3.org/2000/svg">
<path d="M23.88 1.515C23.58 0.63 22.74 0 21.75 0H5.25C4.26 0 3.435 0.63 3.12 1.515L0 10.5V22.5C0 23.325 0.675 24 1.5 24H3C3.825 24 4.5 23.325 4.5 22.5V21H22.5V22.5C22.5 23.325 23.175 24 24 24H25.5C26.325 24 27 23.325 27 22.5V10.5L23.88 1.515ZM5.775 3H21.21L22.83 7.665H4.155L5.775 3ZM24 18H3V10.5H24V18Z" fill="#EBB835"/>
<path d="M6.75 16.5004C7.99264 16.5004 9 15.493 9 14.2504C9 13.0077 7.99264 12.0004 6.75 12.0004C5.50736 12.0004 4.5 13.0077 4.5 14.2504C4.5 15.493 5.50736 16.5004 6.75 16.5004Z" fill="#EBB835"/>
<path d="M20.25 16.5004C21.4926 16.5004 22.5 15.493 22.5 14.2504C22.5 13.0077 21.4926 12.0004 20.25 12.0004C19.0074 12.0004 18 13.0077 18 14.2504C18 15.493 19.0074 16.5004 20.25 16.5004Z" fill="#EBB835"/>
</svg>
