<svg width="15" height="16" viewBox="0 0 15 16" fill="none" xmlns="http://www.w3.org/2000/svg">
<path d="M5.33333 3.66667V1M10.6667 3.66667V1M3.33333 13H12.6667C13.0203 13 13.3594 12.8595 13.6095 12.6095C13.8595 12.3594 14 12.0203 14 11.6667V3.66667C14 3.31304 13.8595 2.97391 13.6095 2.72386C13.3594 2.47381 13.0203 2.33333 12.6667 2.33333H3.33333C2.97971 2.33333 2.64057 2.47381 2.39052 2.72386C2.14048 2.97391 2 3.31304 2 3.66667V11.6667C2 12.0203 2.14048 12.3594 2.39052 12.6095C2.64057 12.8595 2.97971 13 3.33333 13Z" stroke="black" stroke-width="1.5" stroke-linecap="round"/>
<line x1="0.53033" y1="1.46967" x2="13.9654" y2="14.9047" stroke="black" stroke-width="1.5"/>
</svg>
