<svg width="16" height="16" viewBox="0 0 16 16" fill="none" xmlns="http://www.w3.org/2000/svg">
<path d="M1.52414 0L1.18091 0.323846L0.323728 1.18134L0 1.5247L0.247521 1.92478L1.52414 4.05936L1.69546 4.3643H3.48724L5.92587 6.78491C3.74695 8.97438 0.974842 11.7566 0.877297 11.8548C-0.0780361 12.8099 -0.0798652 14.3749 0.895586 15.2854C1.84848 16.2258 3.40128 16.2502 4.30662 15.2854L4.32491 15.2659L8.07796 11.4926L11.8505 15.2848L11.9072 15.3232C12.8644 16.2258 14.3867 16.238 15.2798 15.2848V15.2665H15.2981C16.2321 14.3108 16.2419 12.7575 15.2798 11.8542L15.2603 11.8359L12.0791 8.67188C14.2196 8.47184 15.8962 6.66355 15.9273 4.47896H15.9462C15.9486 4.46676 15.9462 4.45273 15.9462 4.44053V4.42163C16.0059 3.71661 15.8535 3.04208 15.489 2.45843L15.0707 1.81134L12.2316 4.65094L11.3744 3.75503L14.2702 0.858101L13.432 0.515348C12.8972 0.280021 12.3201 0.156533 11.7359 0.15247C9.39238 0.15247 7.4683 2.07725 7.4683 4.42163C7.4683 4.67656 7.52317 4.89794 7.56341 5.12665C7.29699 5.39378 7.09702 5.61272 6.78244 5.92742L4.36271 3.50681V1.69608L4.05788 1.5247L1.92408 0.247611L1.52414 0ZM11.7359 1.37223C11.8213 1.37223 11.881 1.42224 11.9645 1.42956L9.65941 3.73551L10.0782 4.17402L11.7932 5.94633L12.212 6.38483L14.6318 3.96422C14.644 4.10449 14.744 4.20695 14.7269 4.3643V4.42163C14.7269 6.10124 13.3576 7.47103 11.6786 7.47103C11.4549 7.47103 11.1836 7.41858 10.8787 7.35637L10.5544 7.29965L10.3258 7.52835L3.44883 14.4273H3.42932V14.4468C2.99647 14.9207 2.23866 14.9323 1.73387 14.4273V14.4084H1.71436C1.24065 13.9754 1.22907 13.2173 1.73387 12.7123C1.96493 12.4806 6.4392 7.96625 8.63031 5.77495L8.87844 5.52734L8.78272 5.18398C8.72486 4.93382 8.69299 4.67834 8.68762 4.42163C8.68762 2.74202 10.0569 1.37223 11.7359 1.37223ZM1.71436 1.5247L3.14339 2.40171V3.01159L3.01049 3.14454H2.40083L1.52414 1.71559L1.71436 1.5247ZM10.6306 8.9384L14.4227 12.7123V12.7312H14.441C14.9153 13.1643 14.9268 13.9223 14.4227 14.4273H14.4032V14.4468C13.9703 14.9207 13.2125 14.9323 12.7077 14.4273L8.93514 10.6351L10.6306 8.9384Z" fill="black"/>
</svg>
