<svg width="30" height="19" viewBox="0 0 30 19" fill="none" xmlns="http://www.w3.org/2000/svg">
<path d="M21.0357 10.8571C19.4071 10.8571 16.8693 11.3186 14.9286 12.2143C12.9879 11.305 10.45 10.8571 8.82143 10.8571C5.87643 10.8571 0 12.3229 0 15.2679V19H29.8571V15.2679C29.8571 12.3229 23.9807 10.8571 21.0357 10.8571ZM15.6071 16.9643H2.03571V15.2679C2.03571 14.535 5.51 12.8929 8.82143 12.8929C12.1329 12.8929 15.6071 14.535 15.6071 15.2679V16.9643ZM27.8214 16.9643H17.6429V15.2679C17.6429 14.6436 17.3714 14.1007 16.9371 13.6121C18.1314 13.205 19.5971 12.8929 21.0357 12.8929C24.3471 12.8929 27.8214 14.535 27.8214 15.2679V16.9643ZM8.82143 9.5C11.4407 9.5 13.5714 7.36929 13.5714 4.75C13.5714 2.13071 11.4407 0 8.82143 0C6.20214 0 4.07143 2.13071 4.07143 4.75C4.07143 7.36929 6.20214 9.5 8.82143 9.5ZM8.82143 2.03571C10.3143 2.03571 11.5357 3.25714 11.5357 4.75C11.5357 6.24286 10.3143 7.46429 8.82143 7.46429C7.32857 7.46429 6.10714 6.24286 6.10714 4.75C6.10714 3.25714 7.32857 2.03571 8.82143 2.03571ZM21.0357 9.5C23.655 9.5 25.7857 7.36929 25.7857 4.75C25.7857 2.13071 23.655 0 21.0357 0C18.4164 0 16.2857 2.13071 16.2857 4.75C16.2857 7.36929 18.4164 9.5 21.0357 9.5ZM21.0357 2.03571C22.5286 2.03571 23.75 3.25714 23.75 4.75C23.75 6.24286 22.5286 7.46429 21.0357 7.46429C19.5429 7.46429 18.3214 6.24286 18.3214 4.75C18.3214 3.25714 19.5429 2.03571 21.0357 2.03571Z" fill="black"/>
</svg>
