<svg width="22" height="16" viewBox="0 0 22 16" fill="none" xmlns="http://www.w3.org/2000/svg">
<path fill-rule="evenodd" clip-rule="evenodd" d="M20 16C20 16 21.3333 16 21.3333 14.6667C21.3333 13.3333 20 9.33333 14.6667 9.33333C9.33333 9.33333 8 13.3333 8 14.6667C8 16 9.33333 16 9.33333 16H20ZM9.36267 14.6667H19.9707C19.9769 14.6659 19.9831 14.665 19.9893 14.664L20 14.6613C19.9973 14.3093 19.7773 13.288 18.9867 12.368C18.2507 11.5053 16.9573 10.6667 14.6667 10.6667C12.3773 10.6667 11.084 11.5067 10.3467 12.368C9.556 13.288 9.33467 14.3107 9.33333 14.6613C9.34309 14.6632 9.35287 14.665 9.36267 14.6667ZM14.6667 6.66667C15.3739 6.66667 16.0522 6.38572 16.5523 5.88562C17.0524 5.38552 17.3333 4.70724 17.3333 4C17.3333 3.29276 17.0524 2.61448 16.5523 2.11438C16.0522 1.61428 15.3739 1.33333 14.6667 1.33333C13.9594 1.33333 13.2811 1.61428 12.781 2.11438C12.281 2.61448 12 3.29276 12 4C12 4.70724 12.281 5.38552 12.781 5.88562C13.2811 6.38572 13.9594 6.66667 14.6667 6.66667ZM18.6667 4C18.6667 4.52529 18.5632 5.04543 18.3622 5.53073C18.1612 6.01604 17.8665 6.45699 17.4951 6.82843C17.1237 7.19986 16.6827 7.4945 16.1974 7.69552C15.7121 7.89654 15.192 8 14.6667 8C14.1414 8 13.6212 7.89654 13.1359 7.69552C12.6506 7.4945 12.2097 7.19986 11.8382 6.82843C11.4668 6.45699 11.1722 6.01604 10.9711 5.53073C10.7701 5.04543 10.6667 4.52529 10.6667 4C10.6667 2.93913 11.0881 1.92172 11.8382 1.17157C12.5884 0.421428 13.6058 0 14.6667 0C15.7275 0 16.7449 0.421428 17.4951 1.17157C18.2452 1.92172 18.6667 2.93913 18.6667 4ZM9.248 9.70667C8.71464 9.53872 8.16485 9.42831 7.608 9.37733C7.29511 9.34758 6.98097 9.3329 6.66667 9.33333C1.33333 9.33333 0 13.3333 0 14.6667C0 15.556 0.444 16 1.33333 16H6.95467C6.75701 15.5838 6.65843 15.1274 6.66667 14.6667C6.66667 13.32 7.16933 11.944 8.12 10.7947C8.444 10.4027 8.82133 10.036 9.248 9.70667ZM6.56 10.6667C4.336 10.6933 3.07333 11.52 2.34667 12.368C1.55067 13.2933 1.33333 14.3187 1.33333 14.6667H5.33333C5.33333 13.2733 5.764 11.8853 6.56 10.6667ZM2 4.66667C2 3.6058 2.42143 2.58839 3.17157 1.83824C3.92172 1.08809 4.93913 0.666667 6 0.666667C7.06087 0.666667 8.07828 1.08809 8.82843 1.83824C9.57857 2.58839 10 3.6058 10 4.66667C10 5.72753 9.57857 6.74495 8.82843 7.49509C8.07828 8.24524 7.06087 8.66667 6 8.66667C4.93913 8.66667 3.92172 8.24524 3.17157 7.49509C2.42143 6.74495 2 5.72753 2 4.66667ZM6 2C5.29276 2 4.61448 2.28095 4.11438 2.78105C3.61428 3.28115 3.33333 3.95942 3.33333 4.66667C3.33333 5.37391 3.61428 6.05219 4.11438 6.55229C4.61448 7.05238 5.29276 7.33333 6 7.33333C6.70724 7.33333 7.38552 7.05238 7.88562 6.55229C8.38572 6.05219 8.66667 5.37391 8.66667 4.66667C8.66667 3.95942 8.38572 3.28115 7.88562 2.78105C7.38552 2.28095 6.70724 2 6 2Z" fill="black"/>
</svg>
