<svg width="16" height="17" viewBox="0 0 16 17" fill="none" xmlns="http://www.w3.org/2000/svg">
<path d="M15.5434 11.8071L12.0434 10.3071C11.8939 10.2433 11.7277 10.2299 11.5699 10.2688C11.4121 10.3077 11.2712 10.3968 11.1684 10.5227L9.61844 12.4164C7.18586 11.2695 5.22819 9.31183 4.08125 6.87925L5.975 5.32925C6.10115 5.22665 6.19044 5.08574 6.22934 4.92786C6.26825 4.76998 6.25466 4.60372 6.19063 4.45425L4.69063 0.954253C4.62035 0.79313 4.49605 0.661579 4.33917 0.582284C4.18229 0.502988 4.00266 0.480917 3.83125 0.519878L0.58125 1.26988C0.41599 1.30804 0.268545 1.40109 0.16298 1.53384C0.0574141 1.66659 -3.80691e-05 1.83121 1.89256e-08 2.00082C1.89256e-08 10.0164 6.49687 16.5008 14.5 16.5008C14.6697 16.5009 14.8343 16.4435 14.9672 16.3379C15.1 16.2324 15.1931 16.0849 15.2312 15.9196L15.9812 12.6696C16.02 12.4973 15.9974 12.317 15.9175 12.1595C15.8376 12.0021 15.7053 11.8775 15.5434 11.8071Z" fill="#40A8E2"/>
</svg>
