<svg width="22" height="22" viewBox="0 0 22 22" fill="none" xmlns="http://www.w3.org/2000/svg">
<path fill-rule="evenodd" clip-rule="evenodd" d="M9.23077 10.2308C9.78305 10.2308 10.2308 9.78305 10.2308 9.23077V1.76923C10.2308 1.3444 10.5752 1 11 1C11.4248 1 11.7692 1.3444 11.7692 1.76923V9.23077C11.7692 9.78305 12.2169 10.2308 12.7692 10.2308H20.2308C20.6556 10.2308 21 10.5752 21 11C21 11.4248 20.6556 11.7692 20.2308 11.7692H12.7692C12.2169 11.7692 11.7692 12.2169 11.7692 12.7692V20.2308C11.7692 20.6556 11.4248 21 11 21C10.5752 21 10.2308 20.6556 10.2308 20.2308V12.7692C10.2308 12.2169 9.78305 11.7692 9.23077 11.7692H1.76923C1.3444 11.7692 1 11.4248 1 11C1 10.5752 1.3444 10.2308 1.76923 10.2308H9.23077Z" fill="white" stroke="#F9F8F8" stroke-width="0.5"/>
</svg>
