<svg width="14" height="14" viewBox="0 0 14 14" fill="none" xmlns="http://www.w3.org/2000/svg">
<path d="M3.5 1.4C3.5 1.0287 3.6475 0.672601 3.91005 0.41005C4.1726 0.1475 4.5287 0 4.9 0H9.1C9.4713 0 9.8274 0.1475 10.0899 0.41005C10.3525 0.672601 10.5 1.0287 10.5 1.4V2.8H13.3C13.4857 2.8 13.6637 2.87375 13.795 3.00503C13.9263 3.1363 14 3.31435 14 3.5C14 3.68565 13.9263 3.8637 13.795 3.99497C13.6637 4.12625 13.4857 4.2 13.3 4.2H12.5517L11.9448 12.6994C11.9197 13.0526 11.7616 13.3832 11.5025 13.6245C11.2434 13.8658 10.9024 14 10.5483 14H3.451C3.0969 14 2.75595 13.8658 2.49682 13.6245C2.23769 13.3832 2.07964 13.0526 2.0545 12.6994L1.449 4.2H0.7C0.514348 4.2 0.336301 4.12625 0.205025 3.99497C0.0737498 3.8637 0 3.68565 0 3.5C0 3.31435 0.0737498 3.1363 0.205025 3.00503C0.336301 2.87375 0.514348 2.8 0.7 2.8H3.5V1.4ZM4.9 2.8H9.1V1.4H4.9V2.8ZM2.8518 4.2L3.4517 12.6H10.549L11.1489 4.2H2.8518ZM5.6 5.6C5.78565 5.6 5.9637 5.67375 6.09497 5.80503C6.22625 5.9363 6.3 6.11435 6.3 6.3V10.5C6.3 10.6857 6.22625 10.8637 6.09497 10.995C5.9637 11.1263 5.78565 11.2 5.6 11.2C5.41435 11.2 5.2363 11.1263 5.10503 10.995C4.97375 10.8637 4.9 10.6857 4.9 10.5V6.3C4.9 6.11435 4.97375 5.9363 5.10503 5.80503C5.2363 5.67375 5.41435 5.6 5.6 5.6ZM8.4 5.6C8.58565 5.6 8.7637 5.67375 8.89497 5.80503C9.02625 5.9363 9.1 6.11435 9.1 6.3V10.5C9.1 10.6857 9.02625 10.8637 8.89497 10.995C8.7637 11.1263 8.58565 11.2 8.4 11.2C8.21435 11.2 8.0363 11.1263 7.90503 10.995C7.77375 10.8637 7.7 10.6857 7.7 10.5V6.3C7.7 6.11435 7.77375 5.9363 7.90503 5.80503C8.0363 5.67375 8.21435 5.6 8.4 5.6Z" fill="#FF5A5A"/>
</svg>
