<svg width="20" height="20" viewBox="0 0 20 20" fill="none" xmlns="http://www.w3.org/2000/svg">
<path fill-rule="evenodd" clip-rule="evenodd" d="M18.6667 10C18.6667 5.21353 14.7865 1.33333 10 1.33333V0C15.5228 0 20 4.47715 20 10C20 12.8977 18.7669 15.5078 16.7987 17.3333H20V18.6667H14.6667V13.3333H16V16.2539C17.6444 14.676 18.6667 12.4575 18.6667 10ZM3.20127 2.66667H0V1.33333H5.33333V6.66667H4V3.74607C2.35561 5.324 1.33333 7.54246 1.33333 10C1.33333 14.7865 5.21353 18.6667 10 18.6667V20C4.47715 20 0 15.5228 0 10C0 7.10227 1.23313 4.49224 3.20127 2.66667Z" fill="#C4C4C4"/>
</svg>
