<svg width="32" height="32" viewBox="0 0 32 32" fill="none" xmlns="http://www.w3.org/2000/svg">
<path d="M8 3.2C8 2.35131 8.33714 1.53737 8.93726 0.937258C9.53737 0.337142 10.3513 0 11.2 0H20.8C21.6487 0 22.4626 0.337142 23.0627 0.937258C23.6629 1.53737 24 2.35131 24 3.2V6.4H30.4C30.8243 6.4 31.2313 6.56857 31.5314 6.86863C31.8314 7.16869 32 7.57565 32 8C32 8.42435 31.8314 8.83131 31.5314 9.13137C31.2313 9.43143 30.8243 9.6 30.4 9.6H28.6896L27.3024 29.0272C27.2449 29.8345 26.8837 30.5901 26.2914 31.1417C25.6991 31.6933 24.9198 32 24.1104 32H7.888C7.07862 32 6.29931 31.6933 5.70702 31.1417C5.11473 30.5901 4.75347 29.8345 4.696 29.0272L3.312 9.6H1.6C1.17565 9.6 0.768687 9.43143 0.468629 9.13137C0.168571 8.83131 0 8.42435 0 8C0 7.57565 0.168571 7.16869 0.468629 6.86863C0.768687 6.56857 1.17565 6.4 1.6 6.4H8V3.2ZM11.2 6.4H20.8V3.2H11.2V6.4ZM6.5184 9.6L7.8896 28.8H24.112L25.4832 9.6H6.5184ZM12.8 12.8C13.2243 12.8 13.6313 12.9686 13.9314 13.2686C14.2314 13.5687 14.4 13.9757 14.4 14.4V24C14.4 24.4243 14.2314 24.8313 13.9314 25.1314C13.6313 25.4314 13.2243 25.6 12.8 25.6C12.3757 25.6 11.9687 25.4314 11.6686 25.1314C11.3686 24.8313 11.2 24.4243 11.2 24V14.4C11.2 13.9757 11.3686 13.5687 11.6686 13.2686C11.9687 12.9686 12.3757 12.8 12.8 12.8ZM19.2 12.8C19.6243 12.8 20.0313 12.9686 20.3314 13.2686C20.6314 13.5687 20.8 13.9757 20.8 14.4V24C20.8 24.4243 20.6314 24.8313 20.3314 25.1314C20.0313 25.4314 19.6243 25.6 19.2 25.6C18.7757 25.6 18.3687 25.4314 18.0686 25.1314C17.7686 24.8313 17.6 24.4243 17.6 24V14.4C17.6 13.9757 17.7686 13.5687 18.0686 13.2686C18.3687 12.9686 18.7757 12.8 19.2 12.8Z" fill="black"/>
</svg>
