<svg width="6" height="10" viewBox="0 0 6 10" fill="none" xmlns="http://www.w3.org/2000/svg">
<path d="M0.995538 9.99995C1.12361 10.0003 1.25016 9.97676 1.36588 9.93103C1.48159 9.8853 1.58354 9.81855 1.66423 9.73569L5.80498 5.45038C5.93107 5.32258 6 5.16228 6 4.99685C6 4.83142 5.93107 4.67112 5.80498 4.54332L1.51849 0.258013C1.37297 0.112158 1.16387 0.0204347 0.937177 0.00302221C0.710485 -0.0143902 0.484775 0.0439342 0.3097 0.165165C0.134626 0.286395 0.0245285 0.460601 0.00362778 0.649459C-0.0172729 0.838317 0.0527353 1.02636 0.198252 1.17221L4.03037 5.00042L0.326847 8.82863C0.222013 8.93347 0.155421 9.06113 0.13495 9.19651C0.114478 9.33189 0.140983 9.46932 0.211329 9.59254C0.281675 9.71576 0.392918 9.81962 0.531895 9.89182C0.670871 9.96402 0.831765 10.0015 0.995538 9.99995Z" fill="black"/>
</svg>
