<svg width="20" height="16" viewBox="0 0 20 16" fill="none" xmlns="http://www.w3.org/2000/svg">
<path d="M16.92 4.63185C17.5482 4.51852 18.1764 4.40519 18.8046 4.29185C19.1155 4.23852 19.4265 4.18519 19.7375 4.11852C19.9241 4.07852 20.0298 4.10519 19.9925 4.35852C19.837 5.31185 19.6939 6.27185 19.5447 7.23185C19.5198 7.40519 19.4638 7.45185 19.3332 7.31185C19.2026 7.16519 19.0471 7.03185 18.9352 6.87185C18.7672 6.63852 18.6615 6.69852 18.4874 6.87852C16.0431 9.51185 13.5988 12.1385 11.1421 14.7585C9.28243 16.7452 6.27216 16.2785 5.03447 13.8252C4.27569 12.3185 4.46849 10.3919 5.58801 9.15185C7.174 7.39185 8.7973 5.67852 10.4144 3.95852C10.9119 3.42519 11.7578 3.36519 12.386 3.75185C12.5788 3.87185 12.6161 3.95185 12.4357 4.14519C10.6134 6.08519 8.80974 8.03852 6.98741 9.97852C6.50851 10.4852 6.16643 11.0585 6.14155 11.7919C6.09802 12.7985 6.63912 13.7252 7.48498 14.1252C8.35571 14.5385 9.3384 14.3385 10.0412 13.5852C11.5215 12.0052 12.9955 10.4185 14.4757 8.83185C15.4522 7.78519 16.4287 6.73185 17.4114 5.69185C17.5793 5.51852 17.6042 5.40519 17.4114 5.23852C17.2248 5.07852 17.0631 4.89852 16.8889 4.72519C16.9014 4.69185 16.9138 4.65852 16.92 4.63185Z" fill="black"/>
<path d="M0.575243 8.55203C0.718293 8.72537 0.867562 8.89203 0.998173 9.0787C1.15988 9.30537 1.28427 9.31203 1.48952 9.09203C3.14392 7.29203 4.81697 5.51203 6.48381 3.72537C7.25504 2.8987 8.01382 2.06537 8.79127 1.25204C9.86725 0.118702 11.1609 -0.267965 12.6038 0.185368C14.0157 0.632035 14.9175 1.67204 15.2409 3.21203C15.5395 4.63203 15.2098 5.90537 14.2645 6.94537C12.7096 8.65203 11.1298 10.3254 9.55005 12.0054C9.02761 12.5654 8.19419 12.652 7.53492 12.252C7.32967 12.1254 7.31723 12.0387 7.49138 11.8587C8.68553 10.592 9.86725 9.3187 11.0552 8.04537C11.7518 7.2987 12.4546 6.56537 13.1387 5.80537C14.3764 4.42537 13.7669 2.17203 12.0317 1.7387C11.2418 1.5387 10.5203 1.74537 9.9481 2.3587C7.4665 5.00537 4.99734 7.66537 2.51574 10.3187C2.37269 10.472 2.37269 10.5654 2.52196 10.7054C2.72099 10.8987 2.90757 11.1187 3.1377 11.372C2.41001 11.5054 1.74452 11.6254 1.08525 11.7387C0.774269 11.792 0.463291 11.8454 0.152314 11.8987C0.0465818 11.9187 -0.0156137 11.8987 0.00304499 11.7654C0.164753 10.712 0.326461 9.6587 0.48195 8.5987C0.513048 8.59203 0.544146 8.57203 0.575243 8.55203Z" fill="black"/>
</svg>
