<svg width="19" height="19" viewBox="0 0 19 19" fill="none" xmlns="http://www.w3.org/2000/svg">
<path fill-rule="evenodd" clip-rule="evenodd" d="M1.58333 7.91666C1.58333 11.4145 4.41886 14.25 7.91667 14.25C11.4145 14.25 14.25 11.4145 14.25 7.91666C14.25 4.41886 11.4145 1.58333 7.91667 1.58333C4.41886 1.58333 1.58333 4.41886 1.58333 7.91666ZM12.6667 7.91665C12.6667 10.54 10.54 12.6666 7.91667 12.6666C5.29331 12.6666 3.16667 10.54 3.16667 7.91665C3.16667 5.29329 5.29331 3.16665 7.91667 3.16665C10.54 3.16665 12.6667 5.29329 12.6667 7.91665Z" fill="#A1A1A1"/>
<path d="M14.414 13.2944L17.1848 16.0652C17.494 16.3744 17.494 16.8756 17.1848 17.1848C16.8756 17.494 16.3744 17.494 16.0652 17.1848L13.2944 14.414C12.9852 14.1048 12.9852 13.6035 13.2944 13.2944C13.6036 12.9852 14.1048 12.9852 14.414 13.2944Z" fill="#A1A1A1"/>
<circle r="0.791667" transform="matrix(-1 0 0 1 7.91665 7.91667)" fill="#F0F0F0"/>
</svg>
