<svg width="24" height="16" viewBox="0 0 24 16" fill="none" xmlns="http://www.w3.org/2000/svg">
<path d="M23.806 7.63723C21.291 2.87924 16.8806 0 12 0C7.1194 0 2.70149 2.87924 0.208955 7.63723L0 7.99618L0.19403 8.36277C2.70896 13.1208 7.1194 16 12 16C16.8806 16 21.2985 13.1589 23.806 8.36277L24 7.99618L23.806 7.63723ZM12 14.4344C7.79851 14.4344 3.9403 12.0363 1.70149 7.99618C3.9403 3.95609 7.79851 1.55799 12 1.55799C16.2015 1.55799 20.0149 3.96372 22.291 7.99618C20.0149 12.0363 16.194 14.4344 12 14.4344Z" fill="#939393"/>
<path d="M12.2164 2.77999C11.2046 2.78754 10.2176 3.1018 9.38016 3.68307C8.54273 4.26434 7.8924 5.08655 7.51131 6.04585C7.13022 7.00515 7.03547 8.05851 7.23902 9.07289C7.44257 10.0873 7.93529 11.0172 8.65495 11.7451C9.37461 12.4731 10.2889 12.9665 11.2824 13.163C12.2759 13.3594 13.304 13.2502 14.2369 12.8491C15.1698 12.4479 15.9656 11.7729 16.5238 10.9091C17.082 10.0454 17.3775 9.03175 17.3731 7.99621C17.3702 7.30691 17.2344 6.62496 16.9735 5.98947C16.7125 5.35398 16.3316 4.77742 15.8526 4.29285C15.3736 3.80828 14.8058 3.42521 14.1818 3.1656C13.5578 2.906 12.89 2.77496 12.2164 2.77999ZM12.2164 11.7308C11.5017 11.7233 10.8051 11.4998 10.214 11.0884C9.62301 10.677 9.16395 10.0961 8.8945 9.41853C8.62505 8.741 8.55723 7.9971 8.69956 7.28026C8.84188 6.56342 9.188 5.90559 9.69445 5.38941C10.2009 4.87322 10.8451 4.52169 11.5461 4.37897C12.2472 4.23624 12.9738 4.30869 13.6347 4.5872C14.2957 4.86571 14.8614 5.33788 15.261 5.9444C15.6606 6.55092 15.8761 7.26474 15.8806 7.99621C15.8826 8.48851 15.7891 8.97631 15.6054 9.43133C15.4218 9.88636 15.1517 10.2995 14.8109 10.6469C14.4701 10.9943 14.0652 11.269 13.6198 11.4551C13.1745 11.6411 12.6974 11.7349 12.2164 11.7308Z" fill="#939393"/>
</svg>
