<svg width="20" height="16" viewBox="0 0 20 16" fill="none" xmlns="http://www.w3.org/2000/svg">
<path fill-rule="evenodd" clip-rule="evenodd" d="M11 8.00052C9.13616 8.00052 7.57006 6.72574 7.12602 5.00052H0.999999C0.447715 5.00052 0 4.5528 0 4.00052C0 3.44823 0.447715 3.00052 1 3.00052H7.12602C7.57006 1.27529 9.13616 0.000518799 11 0.000518799C13.2091 0.000518799 15 1.79138 15 4.00052C15 6.20966 13.2091 8.00052 11 8.00052ZM13 4.00052C13 5.10509 12.1046 6.00052 11 6.00052C9.89543 6.00052 9 5.10509 9 4.00052C9 2.89595 9.89543 2.00052 11 2.00052C12.1046 2.00052 13 2.89595 13 4.00052C13 4.00052 13 5.10509 13 4.00052ZM19 3.00062C19.5523 3.00062 20 3.44833 20 4.00062C20 4.5529 19.5523 5.00062 19 5.00062H17C16.4477 5.00062 16 4.5529 16 4.00062C16 3.44833 16.4477 3.00062 17 3.00062H19ZM6 16.0006C4.13616 16.0006 2.57006 14.7258 2.12602 13.0006H1C0.447715 13.0006 0 12.5529 0 12.0006C0 11.4483 0.447715 11.0006 1 11.0006H2.12602C2.57006 9.2754 4.13616 8.00062 6 8.00062C8.20914 8.00062 10 9.79148 10 12.0006C10 14.2098 8.20914 16.0006 6 16.0006ZM8 12.0005C8 13.1051 7.10457 14.0005 6 14.0005C4.89543 14.0005 4 13.1051 4 12.0005C4 10.8959 4.89543 10.0005 6 10.0005C7.10457 10.0005 8 10.8959 8 12.0005C8 12.0005 8 13.1051 8 12.0005ZM19 13.0005C19.5523 13.0005 20 12.5528 20 12.0005C20 11.4482 19.5523 11.0005 19 11.0005H12C11.4477 11.0005 11 11.4482 11 12.0005C11 12.5528 11.4477 13.0005 12 13.0005H19Z" fill="white"/>
</svg>
