<svg width="18" height="14" viewBox="0 0 18 14" fill="none" xmlns="http://www.w3.org/2000/svg">
<path d="M10.1253 3.54684V0.874759C10.1254 0.701738 10.1767 0.532613 10.2728 0.388763C10.369 0.244913 10.5056 0.132798 10.6655 0.0665912C10.8253 0.000384058 11.0012 -0.0169425 11.1709 0.016802C11.3406 0.0505465 11.4965 0.133847 11.6188 0.256173L17.7435 6.38079C17.8248 6.46198 17.8893 6.5584 17.9333 6.66454C17.9773 6.77069 18 6.88447 18 6.99938C18 7.11429 17.9773 7.22807 17.9333 7.33421C17.8893 7.44036 17.8248 7.53678 17.7435 7.61797L11.6188 13.7426C11.4966 13.8653 11.3407 13.949 11.1709 13.983C11.0011 14.017 10.8249 13.9998 10.6649 13.9335C10.5049 13.8672 10.3682 13.7549 10.2721 13.6107C10.176 13.4666 10.1249 13.2972 10.1253 13.124V10.4152C9.87683 10.3977 9.63097 10.3898 9.38774 10.3898C4.64028 10.3898 2.17906 13.5151 2.07144 13.6533C1.96114 13.7992 1.80774 13.9067 1.63297 13.9606C1.45819 14.0144 1.2709 14.0119 1.09763 13.9534C0.9238 13.8951 0.77268 13.7837 0.665609 13.6349C0.558538 13.486 0.500929 13.3073 0.500912 13.124C0.500912 5.141 7.57572 3.7787 10.1253 3.54684ZM9.38774 8.6399C9.95382 8.6399 10.5357 8.67927 11.1158 8.75627C11.326 8.78445 11.5188 8.88797 11.6585 9.04759C11.7982 9.20722 11.8752 9.41211 11.8752 9.62422V11.0119L15.8877 6.99938L11.8752 2.98688V4.37454C11.8752 4.85751 11.4631 5.24949 10.981 5.24949C10.1848 5.24949 3.8817 5.42535 2.51241 10.871C3.95957 9.80533 6.25805 8.6399 9.38774 8.6399Z" fill="black"/>
</svg>
