<svg width="32" height="21" viewBox="0 0 32 21" fill="none" xmlns="http://www.w3.org/2000/svg">
<path fill-rule="evenodd" clip-rule="evenodd" d="M21.5625 21C21.5625 21 23 21 23 19.5625C23 18.125 21.5625 13.8125 15.8125 13.8125C10.0625 13.8125 8.625 18.125 8.625 19.5625C8.625 21 10.0625 21 10.0625 21H21.5625ZM10.0941 19.5625H21.5309C21.5376 19.5617 21.5443 19.5608 21.551 19.5596L21.5625 19.5567C21.5596 19.1772 21.3224 18.0761 20.47 17.0843C19.6765 16.1542 18.2821 15.25 15.8125 15.25C13.3443 15.25 11.9499 16.1556 11.155 17.0843C10.3026 18.0761 10.0639 19.1787 10.0625 19.5567C10.073 19.5588 10.0836 19.5607 10.0941 19.5625ZM15.8125 10.9375C16.575 10.9375 17.3063 10.6346 17.8454 10.0954C18.3846 9.55627 18.6875 8.825 18.6875 8.0625C18.6875 7.3 18.3846 6.56873 17.8454 6.02957C17.3063 5.4904 16.575 5.1875 15.8125 5.1875C15.05 5.1875 14.3187 5.4904 13.7796 6.02957C13.2404 6.56873 12.9375 7.3 12.9375 8.0625C12.9375 8.825 13.2404 9.55627 13.7796 10.0954C14.3187 10.6346 15.05 10.9375 15.8125 10.9375ZM20.125 8.0625C20.125 8.62883 20.0135 9.18961 19.7967 9.71282C19.58 10.236 19.2623 10.7114 18.8619 11.1119C18.4614 11.5124 17.986 11.83 17.4628 12.0467C16.9396 12.2635 16.3788 12.375 15.8125 12.375C15.2462 12.375 14.6854 12.2635 14.1622 12.0467C13.639 11.83 13.1636 11.5124 12.7631 11.1119C12.3626 10.7114 12.045 10.236 11.8283 9.71282C11.6115 9.18961 11.5 8.62883 11.5 8.0625C11.5 6.91875 11.9544 5.82185 12.7631 5.0131C13.5719 4.20435 14.6688 3.75 15.8125 3.75C16.9562 3.75 18.0531 4.20435 18.8619 5.0131C19.6706 5.82185 20.125 6.91875 20.125 8.0625ZM9.9705 14.215C9.39547 14.0339 8.80272 13.9149 8.20237 13.8599C7.86504 13.8279 7.52636 13.812 7.1875 13.8125C1.4375 13.8125 0 18.125 0 19.5625C0 20.5213 0.478688 21 1.4375 21H7.498C7.2849 20.5512 7.17862 20.0592 7.1875 19.5625C7.1875 18.1106 7.72944 16.6271 8.75438 15.388C9.10369 14.9654 9.5105 14.5701 9.9705 14.215ZM7.0725 15.25C4.67475 15.2787 3.31344 16.17 2.53 17.0843C1.67181 18.0819 1.4375 19.1873 1.4375 19.5625H5.75C5.75 18.0603 6.21431 16.5639 7.0725 15.25ZM2.15625 8.78125C2.15625 7.6375 2.6106 6.5406 3.41935 5.73185C4.2281 4.9231 5.325 4.46875 6.46875 4.46875C7.6125 4.46875 8.7094 4.9231 9.51815 5.73185C10.3269 6.5406 10.7812 7.6375 10.7812 8.78125C10.7812 9.925 10.3269 11.0219 9.51815 11.8306C8.7094 12.6394 7.6125 13.0937 6.46875 13.0937C5.325 13.0937 4.2281 12.6394 3.41935 11.8306C2.6106 11.0219 2.15625 9.925 2.15625 8.78125ZM6.46875 5.90625C5.70625 5.90625 4.97498 6.20915 4.43582 6.74832C3.89665 7.28748 3.59375 8.01875 3.59375 8.78125C3.59375 9.54375 3.89665 10.275 4.43582 10.8142C4.97498 11.3533 5.70625 11.6562 6.46875 11.6562C7.23125 11.6562 7.96252 11.3533 8.50168 10.8142C9.04085 10.275 9.34375 9.54375 9.34375 8.78125C9.34375 8.01875 9.04085 7.28748 8.50168 6.74832C7.96252 6.20915 7.23125 5.90625 6.46875 5.90625Z" fill="black"/>
<path d="M24 0H26V20C26 20.5523 25.5523 21 25 21V21C24.4477 21 24 20.5523 24 20V0Z" fill="black"/>
<rect x="24" width="8" height="10" rx="2" fill="black"/>
</svg>
