<svg width="40" height="23" viewBox="0 0 40 23" fill="none" xmlns="http://www.w3.org/2000/svg">
<path fill-rule="evenodd" clip-rule="evenodd" d="M21.5625 23C21.5625 23 23 23 23 21.5625C23 20.125 21.5625 15.8125 15.8125 15.8125C10.0625 15.8125 8.625 20.125 8.625 21.5625C8.625 23 10.0625 23 10.0625 23H21.5625ZM10.0941 21.5625H21.5309C21.5376 21.5617 21.5443 21.5608 21.551 21.5596L21.5625 21.5567C21.5596 21.1772 21.3224 20.0761 20.47 19.0843C19.6765 18.1542 18.2821 17.25 15.8125 17.25C13.3443 17.25 11.9499 18.1556 11.155 19.0843C10.3026 20.0761 10.0639 21.1787 10.0625 21.5567C10.073 21.5588 10.0836 21.5607 10.0941 21.5625ZM15.8125 12.9375C16.575 12.9375 17.3063 12.6346 17.8454 12.0954C18.3846 11.5563 18.6875 10.825 18.6875 10.0625C18.6875 9.3 18.3846 8.56873 17.8454 8.02957C17.3063 7.4904 16.575 7.1875 15.8125 7.1875C15.05 7.1875 14.3187 7.4904 13.7796 8.02957C13.2404 8.56873 12.9375 9.3 12.9375 10.0625C12.9375 10.825 13.2404 11.5563 13.7796 12.0954C14.3187 12.6346 15.05 12.9375 15.8125 12.9375ZM20.125 10.0625C20.125 10.6288 20.0135 11.1896 19.7967 11.7128C19.58 12.236 19.2624 12.7114 18.8619 13.1119C18.4614 13.5124 17.986 13.83 17.4628 14.0467C16.9396 14.2635 16.3788 14.375 15.8125 14.375C15.2462 14.375 14.6854 14.2635 14.1622 14.0467C13.639 13.83 13.1636 13.5124 12.7631 13.1119C12.3626 12.7114 12.045 12.236 11.8283 11.7128C11.6115 11.1896 11.5 10.6288 11.5 10.0625C11.5 8.91875 11.9544 7.82185 12.7631 7.0131C13.5719 6.20435 14.6688 5.75 15.8125 5.75C16.9562 5.75 18.0531 6.20435 18.8619 7.0131C19.6706 7.82185 20.125 8.91875 20.125 10.0625ZM9.9705 16.215C9.39547 16.0339 8.80272 15.9149 8.20237 15.8599C7.86504 15.8279 7.52636 15.812 7.1875 15.8125C1.4375 15.8125 0 20.125 0 21.5625C0 22.5213 0.478688 23 1.4375 23H7.498C7.2849 22.5512 7.17862 22.0592 7.1875 21.5625C7.1875 20.1106 7.72944 18.6271 8.75438 17.388C9.10369 16.9654 9.5105 16.5701 9.9705 16.215ZM7.0725 17.25C4.67475 17.2787 3.31344 18.17 2.53 19.0843C1.67181 20.0819 1.4375 21.1873 1.4375 21.5625H5.75C5.75 20.0603 6.21431 18.5639 7.0725 17.25ZM2.15625 10.7812C2.15625 9.6375 2.6106 8.5406 3.41935 7.73185C4.2281 6.9231 5.325 6.46875 6.46875 6.46875C7.6125 6.46875 8.7094 6.9231 9.51815 7.73185C10.3269 8.5406 10.7812 9.6375 10.7812 10.7812C10.7812 11.925 10.3269 13.0219 9.51815 13.8306C8.7094 14.6394 7.6125 15.0938 6.46875 15.0938C5.325 15.0938 4.2281 14.6394 3.41935 13.8306C2.6106 13.0219 2.15625 11.925 2.15625 10.7812ZM6.46875 7.90625C5.70625 7.90625 4.97498 8.20915 4.43582 8.74832C3.89665 9.28748 3.59375 10.0188 3.59375 10.7812C3.59375 11.5437 3.89665 12.275 4.43582 12.8142C4.97498 13.3533 5.70625 13.6562 6.46875 13.6562C7.23125 13.6562 7.96252 13.3533 8.50168 12.8142C9.04085 12.275 9.34375 11.5437 9.34375 10.7812C9.34375 10.0188 9.04085 9.28748 8.50168 8.74832C7.96252 8.20915 7.23125 7.90625 6.46875 7.90625Z" fill="black"/>
<path d="M30.9357 6.36621C30.1931 6.36621 29.4809 6.66121 28.9558 7.18631C28.4307 7.71141 28.1357 8.4236 28.1357 9.16621C28.1357 9.90882 28.4307 10.621 28.9558 11.1461C29.4809 11.6712 30.1931 11.9662 30.9357 11.9662C31.6783 11.9662 32.3905 11.6712 32.9156 11.1461C33.4407 10.621 33.7357 9.90882 33.7357 9.16621C33.7357 8.4236 33.4407 7.71141 32.9156 7.18631C32.3905 6.66121 31.6783 6.36621 30.9357 6.36621ZM29.3024 9.16621C29.3024 8.73302 29.4745 8.31758 29.7808 8.01127C30.0871 7.70496 30.5026 7.53288 30.9357 7.53288C31.3689 7.53288 31.7844 7.70496 32.0907 8.01127C32.397 8.31758 32.5691 8.73302 32.5691 9.16621C32.5691 9.5994 32.397 10.0148 32.0907 10.3212C31.7844 10.6275 31.3689 10.7995 30.9357 10.7995C30.5026 10.7995 30.0871 10.6275 29.7808 10.3212C29.4745 10.0148 29.3024 9.5994 29.3024 9.16621Z" fill="black" stroke="black" stroke-width="0.6"/>
<path d="M37 14.0457L32.2923 19.0647C32.1178 19.25 31.9072 19.3977 31.6735 19.4986C31.4398 19.5995 31.1879 19.6516 30.9333 19.6516C30.6788 19.6516 30.4269 19.5995 30.1932 19.4986C29.9595 19.3977 29.7489 19.25 29.5744 19.0647L24.8667 14.0457L24.8844 14.0667L24.8765 14.0573L24.8667 14.0457C23.6583 12.6166 22.9968 10.8048 23 8.93333C23 4.5518 26.5518 1 30.9333 1C35.3149 1 38.8667 4.5518 38.8667 8.93333C38.8699 10.8048 38.2084 12.6166 37 14.0457L36.9902 14.0573L36.9823 14.0667L37 14.0457ZM36.0933 13.3111C37.1331 12.0897 37.7028 10.5374 37.7 8.93333C37.7 5.19627 34.6704 2.16667 30.9333 2.16667C27.1963 2.16667 24.1667 5.19627 24.1667 8.93333C24.1667 10.604 24.7705 12.1309 25.7734 13.3111L25.9171 13.4805L30.4237 18.2643C30.4892 18.3338 30.5682 18.3892 30.6558 18.4271C30.7434 18.4649 30.8379 18.4844 30.9333 18.4844C31.0288 18.4844 31.1233 18.4649 31.2109 18.4271C31.2985 18.3892 31.3775 18.3338 31.4429 18.2643L35.9495 13.4805L36.0933 13.3111Z" fill="black"/>
<path d="M37 14.0457L32.2923 19.0647C32.1178 19.25 31.9072 19.3977 31.6735 19.4986C31.4398 19.5995 31.1879 19.6516 30.9333 19.6516C30.6788 19.6516 30.4269 19.5995 30.1932 19.4986C29.9595 19.3977 29.7489 19.25 29.5744 19.0647L24.8667 14.0457M37 14.0457C38.2084 12.6166 38.8699 10.8048 38.8667 8.93333C38.8667 4.5518 35.3149 1 30.9333 1C26.5518 1 23 4.5518 23 8.93333C22.9968 10.8048 23.6583 12.6166 24.8667 14.0457M37 14.0457L36.9902 14.0573L36.9823 14.0667L37 14.0457ZM24.8667 14.0457L24.8844 14.0667L24.8765 14.0573L24.8667 14.0457ZM36.0933 13.3111C37.1331 12.0897 37.7028 10.5374 37.7 8.93333C37.7 5.19627 34.6704 2.16667 30.9333 2.16667C27.1963 2.16667 24.1667 5.19627 24.1667 8.93333C24.1667 10.604 24.7705 12.1309 25.7734 13.3111L25.9171 13.4805L30.4237 18.2643C30.4892 18.3338 30.5682 18.3892 30.6558 18.4271C30.7434 18.4649 30.8379 18.4844 30.9333 18.4844C31.0288 18.4844 31.1233 18.4649 31.2109 18.4271C31.2985 18.3892 31.3775 18.3338 31.4429 18.2643L35.9495 13.4805L36.0933 13.3111Z" stroke="black" stroke-width="0.6"/>
<path fill-rule="evenodd" clip-rule="evenodd" d="M39 22.9996H21V21.5996H39V22.9996Z" fill="black"/>
</svg>
