<svg width="40" height="32" viewBox="0 0 40 32" fill="none" xmlns="http://www.w3.org/2000/svg">
<path d="M21.9986 8.10707V1.99945C21.9987 1.60397 22.1161 1.2174 22.3358 0.888602C22.5556 0.559802 22.8679 0.303539 23.2333 0.152209C23.5986 0.000877847 24.0007 -0.0387257 24.3886 0.0384046C24.7764 0.115535 25.1327 0.305936 25.4124 0.585537L39.4116 14.5847C39.5974 14.7702 39.7449 14.9906 39.8455 15.2332C39.9461 15.4759 39.9979 15.7359 39.9979 15.9986C39.9979 16.2612 39.9461 16.5213 39.8455 16.7639C39.7449 17.0065 39.5974 17.2269 39.4116 17.4125L25.4124 31.4116C25.1331 31.6922 24.7767 31.8835 24.3885 31.9612C24.0003 32.0388 23.5978 31.9994 23.232 31.8479C22.8662 31.6965 22.5537 31.4397 22.3341 31.1103C22.1145 30.7809 21.9978 30.3936 21.9986 29.9977V23.8061C21.4307 23.7661 20.8687 23.7481 20.3127 23.7481C9.46142 23.7481 3.83577 30.8917 3.58978 31.2076C3.33767 31.5411 2.98705 31.7868 2.58757 31.9099C2.18808 32.033 1.75999 32.0273 1.36393 31.8936C0.96661 31.7603 0.621193 31.5056 0.376461 31.1654C0.131729 30.8253 4.57764e-05 30.4168 7.62939e-06 29.9977C7.62939e-06 11.7508 16.171 8.63704 21.9986 8.10707ZM20.3127 19.7483C21.6067 19.7483 22.9366 19.8383 24.2625 20.0143C24.743 20.0787 25.1838 20.3154 25.5031 20.6802C25.8223 21.0451 25.9983 21.5134 25.9984 21.9982V25.17L35.1698 15.9986L25.9984 6.82715V9.99895C25.9984 11.1029 25.0565 11.9988 23.9545 11.9988C22.1346 11.9988 7.72753 12.4008 4.59772 24.848C7.90551 22.4122 13.1592 19.7483 20.3127 19.7483Z" fill="black"/>
</svg>
