<svg width="37" height="32" viewBox="0 0 37 32" fill="none" xmlns="http://www.w3.org/2000/svg">
<path d="M16.8699 12.666H20.1324V20.7216H16.8699V12.666ZM16.8683 22.3327H20.1308V25.5549H16.8683V22.3327Z" fill="black"/>
<path d="M21.3836 1.711C20.8159 0.655724 19.7099 0 18.4996 0C17.2892 0 16.1832 0.655723 15.6155 1.71262L0.382966 27.2697C0.117347 27.7602 -0.014228 28.3106 0.00121912 28.8666C0.0166663 29.4226 0.178602 29.9651 0.471053 30.4404C0.759291 30.9179 1.16864 31.3129 1.65868 31.5864C2.14872 31.8599 2.70251 32.0025 3.26537 32H33.7337C34.8887 32 35.9343 31.4167 36.5297 30.4404C36.8217 29.9649 36.9833 29.4225 36.9988 28.8666C37.0142 28.3107 36.8829 27.7603 36.6178 27.2697L21.3836 1.711ZM3.26537 28.7777L18.4996 3.22062L33.7419 28.7777H3.26537Z" fill="black"/>
</svg>
