<svg width="16" height="16" viewBox="0 0 16 16" fill="none" xmlns="http://www.w3.org/2000/svg">
<path d="M7.60924 0.0100624C3.34847 0.21047 -0.0128018 3.72963 3.66548e-05 7.95983C0.00214746 9.205 0.300556 10.4318 0.870646 11.5391L0.0217015 15.6282C0.0113432 15.6793 0.0140556 15.7323 0.0295875 15.7821C0.0451193 15.8319 0.0729693 15.8769 0.110562 15.9131C0.148155 15.9493 0.194277 15.9755 0.244664 15.9892C0.29505 16.0028 0.348074 16.0036 0.398832 15.9914L4.43814 15.0422C5.50797 15.5704 6.68242 15.853 7.87564 15.8695C12.2303 15.936 15.8604 12.5067 15.996 8.1899C16.142 3.56048 12.2913 -0.211989 7.60924 0.00926062V0.0100624ZM12.4293 12.3287C11.8471 12.9082 11.1562 13.3673 10.3962 13.6795C9.6361 13.9918 8.82183 14.1511 8.00001 14.1484C7.03313 14.1514 6.0788 13.9296 5.21246 13.5007L4.64997 13.2225L2.17295 13.8045L2.69451 11.2946L2.41688 10.7559C1.96681 9.88433 1.73342 8.9173 1.73644 7.93658C1.73644 6.27721 2.38799 4.71643 3.57074 3.54365C4.74963 2.37784 6.34124 1.72366 8.00001 1.72315C9.67383 1.72315 11.2465 2.36926 12.4293 3.54285C13.012 4.11652 13.4744 4.80048 13.7895 5.55475C14.1046 6.30902 14.266 7.11846 14.2644 7.93578C14.2644 9.58072 13.6024 11.1663 12.4293 12.3295V12.3287Z" fill="black"/>
<path d="M11.883 9.65606L10.3335 9.21517C10.2335 9.1865 10.1277 9.18521 10.027 9.21144C9.92638 9.23767 9.83464 9.29046 9.76142 9.36427L9.38268 9.74745C9.30432 9.82675 9.20429 9.88121 9.09511 9.90402C8.98593 9.92684 8.87245 9.91699 8.76884 9.87571C8.03625 9.58151 6.49402 8.22195 6.10004 7.54136C6.04481 7.44524 6.01958 7.33482 6.02759 7.22427C6.0356 7.11372 6.07647 7.00809 6.14498 6.9209L6.47557 6.49604C6.53921 6.41464 6.57948 6.31746 6.59206 6.21494C6.60464 6.11242 6.58906 6.00841 6.54698 5.91405L5.89543 4.45188C5.85858 4.37016 5.80326 4.29808 5.73381 4.24133C5.66437 4.18458 5.58269 4.14469 5.49521 4.1248C5.40772 4.10491 5.31681 4.10556 5.22962 4.12671C5.14243 4.14786 5.06134 4.18892 4.99272 4.24666C4.56023 4.6098 4.04669 5.16052 3.9849 5.77217C3.87497 6.84876 4.34037 8.20592 6.10084 9.83643C8.13494 11.7195 9.76463 11.9688 10.8246 11.713C11.4264 11.5688 11.9078 10.9892 12.2104 10.5154C12.2587 10.4402 12.2888 10.3546 12.298 10.2657C12.3073 10.1767 12.2955 10.0868 12.2637 10.0032C12.2318 9.91964 12.1808 9.84468 12.1147 9.78439C12.0486 9.72409 11.9692 9.68014 11.883 9.65606Z" fill="black"/>
</svg>
