<svg width="26" height="26" viewBox="0 0 26 26" fill="none" xmlns="http://www.w3.org/2000/svg">
<path fill-rule="evenodd" clip-rule="evenodd" d="M11.0769 12.0769C11.6292 12.0769 12.0769 11.6292 12.0769 11.0769V1.92308C12.0769 1.41328 12.4902 1 13 1V1C13.5098 1 13.9231 1.41327 13.9231 1.92308V11.0769C13.9231 11.6292 14.3708 12.0769 14.9231 12.0769H24.0769C24.5867 12.0769 25 12.4902 25 13V13C25 13.5098 24.5867 13.9231 24.0769 13.9231H14.9231C14.3708 13.9231 13.9231 14.3708 13.9231 14.9231V24.0769C13.9231 24.5867 13.5098 25 13 25V25C12.4902 25 12.0769 24.5867 12.0769 24.0769V14.9231C12.0769 14.3708 11.6292 13.9231 11.0769 13.9231H1.92308C1.41328 13.9231 1 13.5098 1 13V13C1 12.4902 1.41327 12.0769 1.92308 12.0769H11.0769Z" fill="#F9F8F8" stroke="#F9F8F8"/>
</svg>
